{"glyphs":{":":{"x_min":0,"x_max":397,"ha":397,"o":"m 190 443 q 217 443 236 424 q 256 404 256 377 q 256 349 236 330 q 217 311 190 311 q 162 311 143 330 q 124 349 124 377 q 124 404 143 424 q 162 443 190 443 z m 166 154 q 193 154 212 135 q 232 116 232 88 q 232 61 212 42 q 193 22 166 22 q 139 22 120 42 q 100 61 100 88 q 100 116 120 135 q 139 154 166 154 z"},"?":{"x_min":0,"x_max":502,"ha":502,"o":"m 282 729 q 316 728 348 716 q 379 705 403 684 q 427 663 440 634 q 452 606 452 573 q 452 566 451 558 q 447 507 425 467 q 403 427 376 391 q 349 355 322 319 q 296 283 282 240 q 279 230 271 227 q 263 224 256 224 q 253 224 246 226 q 239 227 233 232 q 227 238 227 245 q 227 248 228 251 q 240 295 258 333 q 275 371 292 408 q 308 444 321 483 q 334 522 338 568 q 340 586 340 601 q 340 645 325 672 q 310 699 285 701 q 284 701 282 701 q 268 701 253 692 q 238 684 224 667 q 211 650 202 626 q 192 601 189 570 q 187 556 174 549 q 160 542 145 542 q 143 542 134 542 q 124 543 112 552 q 100 562 100 580 q 100 583 100 586 q 103 623 120 650 q 137 678 162 696 q 188 714 218 722 q 247 729 275 729 q 278 729 282 729 z m 240 177 q 267 177 286 158 q 306 138 306 111 q 306 83 286 64 q 267 45 240 45 q 212 45 193 64 q 174 83 174 111 q 174 138 193 158 q 212 177 240 177 z"},"<":{"x_min":0,"x_max":436,"ha":436,"o":"m 334 520 q 339 526 347 526 q 348 526 353 526 q 358 525 366 520 q 375 515 378 510 q 381 504 381 501 q 381 497 378 493 q 324 427 270 361 q 217 295 163 229 l 318 -21 q 321 -26 321 -30 q 321 -34 318 -40 q 314 -45 306 -49 q 297 -53 288 -53 q 287 -53 282 -52 q 276 -52 271 -43 l 100 232 z"},"'":{"x_min":0,"x_max":179,"ha":179,"o":"m 55 950 q 56 951 62 951 q 67 951 79 950 q 91 949 110 944 q 129 940 142 933 q 156 926 156 919 q 156 918 155 916 q 150 896 142 860 q 133 823 126 781 q 75 785 54 798 q 33 810 32 823 q 30 836 30 841 q 30 858 38 884 q 46 911 55 950 z"},"=":{"x_min":0,"x_max":490,"ha":490,"o":"m 377 508 q 389 508 395 498 q 401 487 401 474 q 401 461 396 451 q 390 441 380 441 l 134 443 q 122 443 116 454 q 110 464 110 477 q 110 490 116 500 q 122 510 134 510 z m 367 360 q 379 360 385 350 q 391 339 391 326 q 391 313 386 302 q 380 292 370 292 l 124 295 q 112 295 106 306 q 100 316 100 328 q 100 341 106 352 q 112 362 124 362 z"},"a":{"x_min":0,"x_max":536,"ha":536,"o":"m 565 291 q 557 270 546 240 q 535 211 520 178 q 506 146 488 114 q 471 82 452 57 q 432 32 410 16 q 388 0 364 0 q 332 0 310 12 q 288 23 274 42 q 261 62 254 89 q 247 116 245 146 q 234 117 221 92 q 208 67 192 48 q 177 30 160 19 q 143 8 125 7 q 121 7 117 7 q 81 7 54 24 q 26 40 9 70 q -8 101 -12 132 q -17 163 -17 185 q -17 204 -14 234 q -10 264 5 304 q 20 344 45 375 q 70 406 104 425 q 138 444 181 444 q 213 444 236 428 q 260 411 273 385 l 289 459 q 299 459 320 457 q 341 455 361 450 q 381 445 394 438 q 408 430 408 421 q 408 419 407 417 q 402 396 394 360 q 387 324 380 282 q 373 239 368 196 q 363 152 362 131 q 362 110 362 104 q 362 78 366 58 q 369 37 382 37 q 395 37 410 52 q 426 68 442 92 q 457 115 472 144 q 488 174 500 202 q 513 231 522 254 q 532 278 536 291 z m 136 43 q 153 44 168 62 q 183 80 196 107 q 209 134 220 168 q 230 201 238 234 q 246 266 251 295 q 256 324 257 342 q 255 356 249 368 q 243 381 236 390 q 228 400 220 406 q 212 411 206 411 q 187 411 170 384 q 153 357 140 316 q 127 274 119 226 q 111 177 110 154 q 110 130 110 125 q 110 91 116 67 q 121 43 134 43 q 135 43 136 43 z"},"L":{"x_min":0,"x_max":728,"ha":728,"o":"m 746 -29 q 756 -22 763 -22 q 767 -22 772 -25 q 778 -28 778 -38 q 778 -43 776 -50 q 770 -73 757 -88 q 744 -103 726 -112 q 709 -120 688 -124 q 667 -127 645 -127 q 603 -127 563 -114 q 523 -101 484 -82 q 445 -62 408 -38 q 371 -14 336 7 q 317 -12 282 -26 q 246 -39 208 -39 q 179 -39 156 -32 q 134 -25 118 -14 q 103 -2 95 12 q 87 27 87 41 q 87 67 109 87 q 131 107 178 107 q 181 107 185 107 q 198 107 216 104 q 235 100 260 93 q 278 135 300 196 q 323 258 346 328 q 368 398 389 473 q 410 548 426 617 q 443 686 452 744 q 462 803 462 841 q 462 876 453 898 q 444 921 421 921 q 369 921 322 892 q 275 864 234 818 q 192 772 158 715 q 124 658 99 600 q 74 543 59 490 q 44 438 41 402 q 39 391 35 391 q 34 391 31 392 q 28 393 21 403 q 0 438 0 485 q 0 491 2 522 q 3 553 26 614 q 50 674 91 734 q 132 794 184 841 q 235 888 292 917 q 350 946 407 946 q 409 946 411 946 q 455 946 484 930 q 514 914 531 887 q 548 860 555 824 q 562 788 562 748 q 562 713 554 658 q 546 603 532 538 q 518 472 499 402 q 480 331 459 266 q 438 200 416 144 q 393 89 372 54 q 415 38 460 21 q 506 4 548 -10 q 591 -24 629 -33 q 667 -42 696 -42 q 729 -42 746 -29 z m 171 6 q 189 6 208 17 q 227 28 242 55 q 226 60 211 64 q 196 67 182 67 q 179 67 176 67 q 146 67 133 58 q 120 50 120 41 q 120 39 120 38 q 121 27 135 16 q 149 6 171 6 z"},"3":{"x_min":0,"x_max":533,"ha":533,"o":"m 365 471 q 413 462 440 423 q 468 384 473 348 q 478 313 478 294 q 478 259 467 211 q 456 163 422 114 q 389 65 335 32 q 281 0 207 0 q 157 0 116 16 q 75 32 50 62 q 25 91 22 114 q 20 138 20 144 q 20 179 39 219 q 51 230 63 233 q 75 236 84 236 q 90 236 100 234 q 110 233 122 224 q 135 216 143 202 q 135 184 129 158 q 123 132 123 111 q 123 105 124 90 q 125 74 138 55 q 150 36 181 36 q 212 36 238 54 q 264 72 284 100 q 305 129 320 166 q 334 202 342 240 q 349 277 350 296 q 350 314 350 316 q 350 349 342 374 q 335 400 321 412 q 307 425 290 425 q 285 425 279 424 q 278 424 278 424 q 273 424 269 431 q 265 438 263 446 q 261 453 261 459 q 261 463 262 469 q 263 475 270 477 q 304 488 328 516 q 353 545 368 582 q 382 618 384 642 q 386 667 386 677 q 386 705 378 734 q 370 763 348 784 q 326 805 290 805 q 268 805 247 794 q 226 782 211 760 q 196 738 191 714 q 186 689 186 671 q 186 651 190 629 q 182 611 166 604 q 151 597 136 597 q 133 597 122 598 q 111 599 96 609 q 81 619 78 634 q 77 647 77 659 q 77 695 92 729 q 108 763 140 790 q 173 816 215 830 q 257 844 300 844 q 357 844 396 824 q 435 803 457 770 q 479 738 482 712 q 485 686 485 675 q 485 645 475 610 q 465 574 437 536 q 409 498 365 471 z"},";":{"x_min":0,"x_max":394,"ha":394,"o":"m 187 443 q 214 443 234 424 q 253 404 253 377 q 253 349 234 330 q 214 311 187 311 q 159 311 140 330 q 121 349 121 377 q 121 404 140 424 q 159 443 187 443 z m 190 149 q 214 138 220 120 q 226 102 226 90 q 226 77 222 64 q 212 35 186 18 q 160 1 130 -4 q 122 -4 119 0 q 116 5 116 10 q 116 15 119 20 q 122 24 128 25 q 133 26 137 26 q 141 27 146 29 q 140 31 137 33 q 113 44 106 62 q 100 80 100 90 q 100 104 106 117 q 117 141 135 148 q 153 155 164 155 q 177 155 190 149 z"},"J":{"x_min":0,"x_max":626,"ha":626,"o":"m 607 969 q 638 969 654 958 q 669 946 669 931 q 669 917 654 904 q 640 892 608 887 q 589 839 576 779 q 562 719 552 656 q 542 592 534 530 q 527 467 519 415 q 514 381 509 328 q 504 275 496 214 q 488 152 476 88 q 464 23 445 -32 q 430 -76 410 -111 q 390 -146 364 -168 q 337 -190 315 -194 q 293 -199 281 -199 q 257 -199 228 -189 q 172 -171 128 -119 q 85 -67 56 2 q 27 71 14 146 q 0 220 0 286 q 0 295 1 337 q 2 379 21 440 q 40 501 77 534 q 88 543 93 543 q 98 543 98 538 q 98 535 96 529 q 85 490 79 432 q 73 374 73 313 q 73 304 74 264 q 74 223 83 148 q 92 74 112 10 q 132 -54 165 -101 q 198 -148 247 -165 q 253 -167 258 -167 q 273 -167 288 -150 q 303 -134 317 -98 q 331 -61 342 -10 q 352 40 360 95 q 369 150 374 206 q 380 261 384 308 q 388 356 390 390 q 393 425 395 439 q 400 490 405 546 q 410 601 418 656 q 427 712 441 766 q 455 819 477 866 q 407 854 332 843 q 256 832 190 832 q 125 832 78 848 q 30 865 17 907 q 16 911 16 914 q 16 924 24 930 q 33 936 41 937 q 49 938 53 938 q 61 938 71 935 q 81 932 82 926 q 86 897 125 888 q 164 878 214 878 q 222 878 256 879 q 290 880 362 888 q 434 897 499 906 q 520 937 549 952 q 578 968 607 969 z"},"V":{"x_min":0,"x_max":910,"ha":910,"o":"m 795 790 q 800 791 808 791 q 816 791 832 790 q 848 789 868 786 q 889 782 904 776 q 918 769 918 759 q 918 759 918 758 l 915 743 q 910 710 900 658 q 891 606 877 544 q 863 481 843 412 q 823 344 798 277 q 773 210 742 150 q 712 89 676 43 q 639 -3 597 -30 q 555 -58 506 -58 q 452 -58 420 -30 q 388 -1 372 48 q 356 98 355 139 q 354 180 354 197 q 354 248 359 312 q 364 377 376 455 q 387 533 398 606 q 409 680 416 742 q 424 804 424 849 q 424 854 424 881 q 423 908 411 935 q 399 962 372 962 q 371 962 370 962 q 318 959 274 927 q 230 895 194 845 q 159 795 132 734 q 105 672 87 611 q 69 550 61 498 q 53 447 53 413 q 53 409 53 405 q 53 393 48 393 q 48 393 44 394 q 41 395 33 405 q 4 442 2 476 q 0 509 0 520 q 0 567 14 626 q 29 684 62 748 q 96 813 142 866 q 187 918 242 952 q 297 985 357 987 q 361 987 365 987 q 420 987 456 960 q 491 934 510 886 q 530 838 534 786 q 538 735 538 694 q 538 665 536 613 q 533 561 523 484 q 513 406 502 332 q 492 259 484 194 q 475 128 474 102 q 474 76 474 74 q 474 28 484 0 q 493 -27 519 -27 q 547 -26 573 4 q 599 35 622 86 q 646 136 667 202 q 688 268 706 339 q 723 410 738 481 q 753 552 764 614 q 775 675 783 722 q 791 768 795 790 z"},"\"":{"x_min":0,"x_max":325,"ha":325,"o":"m 55 950 q 56 951 62 951 q 67 951 79 950 q 91 949 110 944 q 129 940 142 933 q 156 926 156 919 q 156 918 155 916 q 150 896 142 860 q 133 823 126 781 q 75 785 54 798 q 33 810 32 823 q 30 836 30 841 q 30 858 38 884 q 46 911 55 950 z m 203 950 q 204 951 210 951 q 215 951 227 950 q 239 949 258 944 q 277 940 290 933 q 304 926 304 919 q 304 918 303 916 q 298 896 290 860 q 281 823 274 781 q 223 785 202 798 q 181 810 180 823 q 178 836 178 841 q 178 858 186 884 q 194 911 203 950 z"},"7":{"x_min":0,"x_max":506,"ha":506,"o":"m 479 842 q 493 842 498 838 q 502 833 502 827 q 502 826 502 822 q 501 818 495 810 q 489 802 482 796 q 460 778 430 738 q 400 699 367 644 q 334 588 300 519 q 266 450 238 372 q 209 294 188 210 q 166 125 157 39 q 155 19 132 8 q 109 -4 96 -4 q 82 -5 81 -5 q 56 -5 38 6 q 20 17 20 37 q 20 40 20 43 q 27 100 47 166 q 67 231 96 298 q 125 366 160 432 q 196 499 236 559 q 275 619 316 670 q 357 720 397 755 l 48 754 q 35 754 29 767 q 23 780 23 795 q 23 796 24 805 q 24 814 30 828 q 35 842 46 842 l 49 842 q 54 842 59 842 l 67 842 q 69 842 70 842 l 73 842 q 75 842 76 842 l 86 842 q 87 842 89 842 l 92 842 q 93 842 95 842 l 153 842 q 159 842 165 842 l 173 842 q 175 842 177 842 l 180 842 q 182 842 184 842 l 194 842 q 196 842 198 842 l 201 842 q 203 842 205 842 l 266 842 q 272 842 278 842 l 286 842 q 288 842 290 842 l 293 842 q 295 842 297 842 l 307 842 q 309 842 311 842 l 314 842 q 316 842 318 842 l 378 842 q 384 842 390 842 l 398 842 q 400 842 401 842 l 405 842 q 406 842 408 842 l 418 842 q 419 842 421 842 l 424 842 q 426 842 428 842 z"},"S":{"x_min":0,"x_max":672,"ha":672,"o":"m 821 827 q 822 825 822 823 q 822 820 820 817 q 817 814 814 813 q 810 812 807 812 q 804 812 800 813 q 796 814 794 819 q 786 836 774 842 q 762 847 748 847 q 710 847 682 827 q 655 807 636 778 q 617 749 606 716 q 594 682 589 655 q 582 617 577 554 q 572 492 565 417 q 559 351 550 280 q 541 209 527 143 q 513 77 492 20 q 470 -36 440 -75 q 409 -114 378 -126 q 347 -138 323 -138 q 299 -138 271 -130 q 215 -114 168 -70 q 120 -27 84 32 q 49 90 27 157 q 5 224 2 262 q -1 301 -1 315 q -1 361 12 408 q 26 454 63 483 q 73 491 79 491 q 80 491 82 490 q 84 490 84 486 q 84 483 82 478 q 71 444 70 412 q 69 379 69 367 q 69 325 75 272 q 81 218 98 156 q 114 93 140 40 q 167 -14 204 -54 q 241 -94 290 -108 q 296 -110 302 -110 q 316 -110 331 -96 q 346 -81 360 -48 q 374 -16 384 28 q 395 72 404 120 q 412 169 418 218 q 423 267 427 309 q 431 351 434 382 q 436 413 438 425 q 440 440 442 464 q 444 487 447 516 q 450 544 454 576 q 459 608 466 641 q 445 598 424 552 q 404 506 382 462 q 361 417 340 376 q 318 335 296 302 q 282 282 262 272 q 242 263 222 262 q 174 262 150 287 q 127 312 127 344 q 127 350 128 357 q 131 380 136 396 q 141 413 154 422 q 168 432 181 432 q 194 433 196 433 q 219 433 255 425 q 255 422 253 412 q 251 402 248 388 q 246 373 244 357 q 242 341 241 328 q 241 326 241 324 q 241 302 246 301 q 251 300 252 300 q 262 300 275 320 q 289 341 308 377 q 326 413 346 457 q 367 501 389 550 q 411 599 433 646 q 455 693 476 734 q 498 776 517 805 q 546 848 590 870 q 633 891 685 891 q 688 891 690 891 q 732 891 769 876 q 806 861 821 827 z"},"}":{"x_min":0,"x_max":313,"ha":313,"o":"m 44 11 q 42 14 42 17 q 42 19 43 23 q 44 27 49 29 q 60 33 66 61 q 72 89 78 130 q 84 171 91 218 q 98 265 109 308 q 120 350 137 382 q 154 413 180 422 q 157 438 150 471 q 142 504 142 542 q 142 547 142 571 q 143 595 150 642 q 157 690 162 730 q 168 771 169 788 q 170 804 170 808 q 170 830 162 836 q 157 840 157 845 q 157 845 158 848 q 158 852 162 855 q 166 858 178 858 q 180 858 182 858 q 219 858 238 838 q 256 818 260 792 q 265 765 265 743 q 265 727 262 697 q 259 667 252 624 q 245 580 240 544 q 234 509 234 485 q 234 478 234 471 q 236 443 242 432 q 248 420 254 414 q 255 412 255 411 q 255 410 253 409 q 244 404 235 394 q 226 383 216 351 q 207 322 202 282 q 198 242 193 200 q 188 157 180 117 q 172 77 158 48 q 143 19 124 8 q 106 -2 89 -2 q 75 -2 58 3 q 47 6 44 11 z"},"Z":{"x_min":0,"x_max":767,"ha":767,"o":"m 103 9 q 142 45 196 70 q 251 95 312 108 q 372 121 406 122 q 441 123 449 123 q 503 123 554 112 q 606 102 649 78 q 692 55 714 20 q 720 10 720 5 q 720 4 720 2 q 719 0 716 0 q 712 0 707 2 q 663 20 588 34 q 513 47 428 48 q 418 48 409 48 q 375 48 337 45 q 299 42 259 34 q 219 25 184 11 q 148 -3 120 -24 q 106 -35 88 -50 q 70 -64 51 -64 q 38 -64 28 -57 q 19 -50 12 -39 q 6 -28 3 -16 q 0 -4 0 7 q 0 44 26 91 q 53 138 96 190 q 140 241 196 296 q 253 350 314 404 q 289 403 270 400 q 250 396 239 388 q 234 385 227 385 q 224 385 218 386 q 211 388 204 394 q 197 399 196 404 q 195 409 195 410 q 195 418 204 426 q 227 437 254 438 q 282 440 299 440 q 325 440 353 438 q 403 482 452 524 q 501 567 543 606 q 585 646 618 682 q 650 717 668 747 q 686 777 686 790 q 687 802 687 803 q 687 825 667 840 q 624 872 592 874 q 560 876 550 876 q 505 876 452 862 q 400 848 342 818 q 284 788 232 752 q 180 715 138 678 q 96 641 71 611 q 65 603 61 603 q 59 603 57 606 q 55 608 55 618 q 55 620 55 623 q 59 672 93 720 q 127 767 180 806 q 232 846 298 875 q 364 904 416 912 q 467 921 501 921 q 532 921 579 914 q 626 906 675 869 q 711 842 726 812 q 740 782 740 751 q 740 748 739 730 q 738 711 722 676 q 706 640 679 604 q 642 553 602 508 q 561 463 519 421 q 534 419 547 418 q 560 417 571 417 q 578 417 582 412 q 585 407 585 402 q 585 396 581 392 q 577 388 570 388 q 554 389 534 391 q 514 393 491 395 q 440 345 388 298 q 335 252 285 206 q 235 159 188 110 q 142 62 103 9 z"},"x":{"x_min":0,"x_max":449,"ha":449,"o":"m 478 291 q 470 268 458 235 q 445 202 430 167 q 414 132 394 98 q 375 64 352 40 q 317 2 270 0 q 235 0 201 27 q 178 45 159 73 q 140 101 123 134 q 97 105 75 74 q 53 42 39 7 q 36 -1 32 -2 q 27 -4 24 -4 q 21 -4 17 -2 q 13 -1 10 2 q 8 6 8 9 q 8 11 9 13 q 26 55 52 92 q 77 130 108 167 q 88 215 73 264 q 58 314 50 356 q 44 339 39 322 q 34 305 29 291 l 0 291 q 10 320 21 356 q 32 393 40 424 q 49 435 68 444 q 86 453 102 456 q 118 460 129 460 q 135 460 145 458 q 155 457 157 445 q 161 418 170 368 q 179 319 193 264 q 228 306 259 351 q 290 396 312 450 q 315 458 322 458 q 329 459 332 459 q 340 459 350 456 q 361 454 369 449 q 377 444 377 440 q 377 439 377 438 q 351 373 304 320 q 257 268 205 218 q 217 174 231 136 q 245 97 261 71 q 281 37 298 37 q 299 37 299 37 q 313 37 331 56 q 350 76 369 110 q 388 143 404 178 q 420 213 432 244 q 444 276 449 291 z"},")":{"x_min":0,"x_max":397,"ha":397,"o":"m 33 16 q 64 49 92 114 q 119 180 141 264 q 163 347 178 442 q 194 536 199 608 q 204 680 204 730 q 204 763 201 818 q 198 872 180 924 q 179 926 179 929 q 179 932 182 936 q 184 939 188 941 q 193 943 198 943 q 199 943 202 942 q 206 942 209 938 q 264 881 290 798 q 317 716 318 662 q 320 609 320 595 q 320 514 304 424 q 287 333 252 247 q 216 161 166 94 q 116 28 56 -5 q 53 -7 49 -7 q 47 -7 44 -6 q 40 -5 36 -2 q 31 2 30 5 q 30 8 30 9 q 30 13 33 16 z"},"_":{"x_min":0,"x_max":476,"ha":476,"o":"m 24 67 l 397 65 q 409 65 415 54 q 421 44 421 31 q 421 18 416 8 q 410 -2 400 -2 l 24 0 q 12 0 6 10 q 0 21 0 34 q 0 47 6 57 q 12 67 24 67 z"},"v":{"x_min":0,"x_max":410,"ha":410,"o":"m 325 446 q 326 453 330 456 q 334 460 339 460 q 340 460 343 460 q 346 459 350 456 q 353 453 353 448 q 353 446 353 445 q 351 416 342 372 q 332 328 318 279 q 303 230 284 181 q 265 132 242 92 q 219 53 194 28 q 168 3 141 2 q 137 2 134 2 q 91 2 63 25 q 35 48 20 88 q 5 127 2 168 q -1 210 -1 242 q -1 260 0 294 q 2 329 7 375 q 12 421 14 453 q 18 453 24 453 q 32 453 49 452 q 66 451 86 446 q 107 442 121 435 q 135 428 135 418 q 135 416 135 415 q 132 394 129 358 q 126 321 124 280 q 122 238 122 195 q 122 152 125 118 q 128 83 135 62 q 142 40 153 40 q 153 40 154 40 q 172 41 192 65 q 211 89 230 127 q 248 165 264 211 q 281 257 294 302 q 306 347 314 386 q 323 424 325 446 z"},"O":{"x_min":0,"x_max":731,"ha":731,"o":"m 414 999 q 502 999 559 956 q 616 913 646 842 q 677 772 681 714 q 685 657 685 631 q 685 566 672 486 q 658 405 624 315 q 591 225 542 154 q 493 84 432 41 q 370 -2 300 -2 q 235 -2 183 49 q 131 100 106 213 q 99 213 93 218 q 53 254 30 306 q 8 359 4 402 q 0 444 0 469 q 0 508 8 562 q 15 615 38 680 q 62 744 98 802 q 135 859 182 903 q 230 947 288 973 q 347 999 414 999 z m 290 27 q 337 27 379 68 q 421 108 455 174 q 489 240 514 324 q 538 409 550 496 q 563 583 563 664 q 563 667 562 711 q 562 755 546 821 q 529 887 496 928 q 463 968 410 968 q 371 968 328 944 q 286 919 246 875 q 207 831 174 770 q 140 708 118 634 q 96 561 91 504 q 86 448 86 419 q 86 363 95 306 q 94 319 94 332 q 94 382 104 439 q 115 496 140 551 q 164 606 202 648 q 241 689 292 709 q 295 710 298 710 q 304 710 306 705 q 309 700 309 697 q 309 693 305 689 q 277 659 252 610 q 227 562 208 504 q 189 445 178 382 q 166 318 166 259 q 166 202 176 159 q 185 116 202 86 q 218 57 241 42 q 264 27 290 27 z"},"C":{"x_min":0,"x_max":570,"ha":570,"o":"m 600 291 q 579 234 546 175 q 514 116 469 67 q 424 18 368 -13 q 311 -44 244 -45 q 242 -45 239 -45 q 177 -45 132 -20 q 86 5 56 49 q 27 93 14 150 q 0 207 0 269 q 0 274 0 278 q 1 345 16 416 q 30 488 57 556 q 84 623 122 684 q 161 744 210 789 q 258 834 315 860 q 372 885 434 885 q 437 885 439 885 q 510 885 567 854 q 582 845 582 837 q 582 836 582 835 q 570 794 555 712 q 508 716 486 727 q 463 738 458 752 q 453 766 453 779 q 453 788 456 806 q 459 823 467 855 q 455 857 444 857 q 407 857 368 836 q 328 816 291 772 q 254 728 224 668 q 195 607 174 538 q 154 470 143 398 q 132 326 132 260 q 132 204 140 155 q 148 106 166 70 q 183 34 209 14 q 235 -6 269 -6 q 270 -6 272 -6 q 327 -5 374 24 q 421 53 458 97 q 496 141 524 192 q 552 244 570 291 z"},"W":{"x_min":0,"x_max":1238,"ha":1238,"o":"m 1009 314 q 1040 432 1067 546 q 1094 659 1129 777 q 1139 777 1160 776 q 1181 774 1201 770 q 1221 765 1234 758 q 1247 751 1247 743 q 1247 742 1246 740 q 1244 735 1242 725 q 1230 680 1218 628 q 1205 576 1192 520 q 1178 465 1162 408 q 1147 351 1131 296 q 1121 265 1110 226 q 1098 186 1082 145 q 1066 104 1044 65 q 1023 26 995 -4 q 967 -35 931 -54 q 895 -72 849 -72 q 801 -72 768 -56 q 736 -39 716 -10 q 696 18 687 58 q 678 97 677 142 q 677 147 677 151 q 677 219 692 298 q 706 378 727 454 q 748 531 768 594 q 789 658 800 694 q 784 674 767 638 q 750 602 732 554 q 714 506 694 448 q 675 390 654 328 q 613 202 574 114 q 536 25 491 -41 q 474 -65 452 -82 q 430 -100 402 -100 q 399 -100 396 -100 q 360 -98 338 -82 q 316 -66 304 -42 q 292 -18 288 10 q 284 39 284 65 q 284 113 292 165 q 301 217 313 265 q 325 313 336 352 q 348 391 354 412 q 357 424 367 454 q 377 485 390 526 q 402 567 416 616 q 429 664 440 713 q 451 762 458 806 q 465 850 465 884 q 465 886 464 905 q 464 924 454 945 q 444 966 422 966 q 370 966 322 936 q 275 905 234 856 q 193 808 159 748 q 125 687 100 626 q 74 566 59 512 q 44 458 41 422 q 39 411 35 411 q 34 411 31 412 q 28 413 21 423 q 0 458 0 507 q 0 513 2 544 q 3 576 27 640 q 51 703 92 766 q 133 829 184 880 q 235 930 293 960 q 351 991 408 991 q 410 991 412 991 q 456 991 486 976 q 515 961 532 934 q 550 908 557 875 q 564 842 564 807 q 564 802 564 797 q 563 744 552 686 q 542 629 528 574 q 515 520 502 473 q 488 426 481 396 q 478 385 472 358 q 465 332 456 296 q 448 260 438 218 q 429 175 421 133 q 413 91 408 52 q 402 14 402 -15 q 402 -70 423 -70 q 443 -68 468 -31 q 509 29 547 118 q 585 206 627 335 q 651 406 674 473 q 697 540 720 596 q 742 651 764 690 q 786 729 809 743 q 820 749 833 749 q 834 749 836 749 q 850 748 864 745 q 879 742 890 738 q 901 733 906 728 q 911 723 911 718 q 911 715 910 712 l 906 698 q 902 684 891 646 q 880 608 866 556 q 852 504 836 442 q 820 381 806 318 q 793 254 784 194 q 774 133 773 85 q 773 77 773 69 q 773 24 784 -8 q 794 -40 824 -41 q 825 -41 826 -41 q 850 -41 872 -20 q 894 2 913 36 q 932 69 948 111 q 963 153 976 192 q 988 232 996 264 q 1004 297 1009 314 z"},"A":{"x_min":0,"x_max":961,"ha":961,"o":"m 968 449 q 975 449 978 445 q 981 441 981 436 q 981 435 980 432 q 980 429 977 424 q 974 419 969 419 q 946 419 913 415 q 880 411 839 406 q 834 382 826 339 q 818 296 810 246 q 803 195 796 142 q 790 89 788 60 q 787 31 787 18 q 787 -10 791 -36 q 795 -62 809 -69 q 822 -75 822 -82 q 822 -85 818 -92 q 814 -98 793 -100 q 786 -101 780 -101 q 740 -101 714 -76 q 689 -52 676 -8 q 664 35 664 64 q 663 94 663 98 q 663 150 670 204 q 676 257 686 307 q 695 357 702 389 q 701 389 701 389 l 694 388 q 693 388 693 388 l 684 387 q 684 387 683 387 l 676 386 q 676 386 675 386 l 667 385 q 666 385 665 385 l 659 384 q 658 384 657 384 l 651 383 q 649 383 648 383 l 641 382 q 640 382 640 382 l 632 381 q 631 381 630 381 l 623 380 q 623 380 622 380 l 614 379 q 570 374 525 371 q 501 304 475 240 q 449 175 420 119 q 392 63 360 18 q 328 -26 292 -53 q 257 -80 233 -84 q 209 -87 200 -87 q 168 -87 133 -70 q 83 -46 51 6 q 19 58 6 120 q -7 183 -7 245 q -7 254 -6 295 q -5 336 12 402 q 29 469 59 521 q 89 573 132 597 q 142 602 148 602 q 149 602 151 602 q 153 602 153 598 q 153 595 150 589 q 131 556 112 502 q 94 447 80 383 q 66 319 62 270 q 57 220 57 191 q 57 156 62 110 q 68 64 90 18 q 113 -29 157 -51 q 168 -57 178 -57 q 198 -57 222 -32 q 245 -8 272 52 q 300 112 328 194 q 355 276 385 366 q 347 367 314 370 q 281 374 256 382 q 230 390 214 403 q 197 416 191 434 q 191 436 191 438 q 191 448 200 454 q 209 460 218 461 q 226 462 230 462 q 239 462 248 460 q 257 457 258 451 q 260 429 299 420 q 338 410 400 409 q 431 501 466 588 q 502 676 544 744 q 585 813 632 854 q 680 896 737 896 q 789 896 819 872 q 849 847 864 806 q 878 766 878 737 q 879 708 879 700 q 879 657 874 610 q 869 563 860 516 q 851 470 845 438 q 885 443 916 446 q 948 448 968 449 z m 743 862 q 718 862 694 824 q 670 786 646 723 q 621 660 594 578 q 568 497 538 411 q 581 414 624 417 q 668 420 710 425 q 715 446 723 487 q 731 528 740 576 q 748 625 755 676 q 762 726 764 754 q 765 781 765 794 q 765 818 761 840 q 757 862 743 862 z"},"f":{"x_min":0,"x_max":365,"ha":365,"o":"m 415 636 q 416 633 416 630 q 416 624 411 616 q 406 607 395 607 q 393 607 391 607 q 372 624 350 640 q 329 656 303 656 q 279 656 263 629 q 247 602 236 556 q 225 509 218 446 q 211 384 205 313 l 209 313 q 211 313 214 313 l 216 313 q 219 313 221 313 l 223 313 q 223 313 224 313 l 229 313 q 230 313 230 313 l 257 313 q 282 313 308 312 q 317 312 321 308 q 325 303 325 298 q 325 293 321 288 q 317 284 309 284 l 203 284 q 197 210 190 132 q 183 53 172 -22 q 162 -96 146 -162 q 131 -227 108 -276 q 84 -326 50 -354 q 17 -383 -28 -383 q -57 -383 -81 -364 q -105 -345 -122 -318 q -140 -290 -150 -258 q -159 -227 -159 -201 q -159 -175 -148 -154 q -136 -132 -108 -122 q -107 -122 -106 -122 q -102 -122 -98 -126 q -95 -129 -92 -135 q -90 -141 -90 -148 q -90 -154 -93 -158 q -113 -165 -122 -180 q -130 -196 -130 -215 q -130 -235 -122 -260 q -114 -286 -100 -308 q -87 -330 -71 -342 q -55 -354 -39 -354 q -34 -354 -28 -353 q -16 -351 -7 -324 q 2 -296 10 -250 q 17 -204 24 -144 q 32 -83 40 -14 q 47 55 56 128 q 66 201 79 273 l 82 285 l 13 285 q 5 285 1 290 q -3 294 -3 299 q -3 304 2 308 q 6 313 14 313 l 87 313 q 103 400 123 469 q 143 538 169 586 q 195 635 228 661 q 261 687 303 687 q 305 687 307 687 q 337 687 364 672 q 392 656 415 636 z"},"Q":{"x_min":0,"x_max":738,"ha":738,"o":"m 819 -84 q 829 -78 835 -78 q 841 -78 845 -82 q 849 -86 849 -94 q 849 -101 846 -110 q 837 -135 822 -150 q 807 -165 788 -172 q 770 -180 756 -181 q 742 -182 735 -182 q 721 -182 706 -180 q 661 -175 620 -154 q 579 -132 540 -102 q 502 -73 466 -40 q 430 -7 395 21 q 369 3 340 -11 q 310 -25 280 -25 q 276 -25 272 -25 q 253 -24 235 -18 q 217 -11 204 0 q 190 12 182 28 q 174 43 174 62 q 174 64 174 66 q 174 81 180 94 q 187 107 199 116 q 211 126 226 130 q 241 134 255 134 q 264 134 273 133 q 297 131 331 116 q 365 101 404 81 q 433 120 462 178 q 490 236 514 305 q 538 374 554 451 q 571 528 576 605 q 578 637 578 666 q 578 720 569 775 q 560 830 537 874 q 514 919 481 942 q 448 964 411 966 q 407 966 402 966 q 345 966 294 928 q 243 890 202 824 q 162 758 135 675 q 108 592 97 520 q 86 447 86 389 q 86 371 88 324 q 91 278 114 230 q 115 227 115 225 q 115 219 110 216 q 106 213 102 213 q 97 213 91 218 q 52 252 30 304 q 9 356 4 400 q 0 444 0 471 q 0 509 7 563 q 14 617 36 682 q 59 748 95 807 q 131 866 180 910 q 228 953 284 976 q 339 998 398 998 q 408 998 418 997 q 477 994 530 968 q 584 941 624 892 q 663 842 682 776 q 701 710 701 637 q 701 617 700 595 q 695 517 674 440 q 653 364 619 294 q 585 224 540 164 q 496 104 444 59 q 486 36 530 10 q 575 -15 618 -36 q 660 -58 698 -74 q 737 -89 767 -93 q 774 -94 780 -94 q 805 -94 819 -84 z m 271 21 q 277 20 284 20 q 302 20 324 25 q 346 30 367 43 q 342 61 318 73 q 295 85 271 88 q 258 90 248 90 q 231 90 218 84 q 206 77 205 64 q 205 63 205 61 q 205 52 212 44 q 218 37 228 32 q 239 27 250 24 q 262 22 271 21 z"},"w":{"x_min":0,"x_max":678,"ha":678,"o":"m 593 446 q 594 453 598 456 q 602 460 607 460 q 608 460 611 460 q 614 459 618 456 q 621 453 621 448 q 621 446 621 445 q 618 416 609 372 q 600 328 586 279 q 571 230 552 181 q 533 132 510 92 q 487 53 462 28 q 436 3 409 2 q 405 2 402 2 q 354 2 326 29 q 297 56 283 101 q 269 146 268 182 q 267 217 267 232 q 267 273 270 312 q 256 270 240 216 q 223 161 200 112 q 178 63 148 32 q 118 2 78 2 q 75 2 71 2 q 34 5 15 34 q -4 64 -8 99 q -13 134 -13 161 q -13 183 -10 222 q -6 260 2 310 q 11 360 20 400 q 29 440 33 459 q 43 459 64 457 q 85 455 106 450 q 126 445 139 438 q 152 430 152 421 q 152 419 151 417 q 149 408 143 378 q 137 348 130 308 q 122 268 116 224 q 109 180 106 146 q 103 112 103 91 q 103 85 104 70 q 104 54 112 52 q 113 52 114 52 q 125 52 140 74 q 156 97 172 136 q 189 174 206 221 q 223 268 238 312 q 253 355 265 390 q 277 424 284 438 q 288 446 296 446 q 305 447 307 447 q 321 447 339 442 q 357 438 375 430 q 393 423 403 415 q 400 394 397 358 q 394 321 392 280 q 390 238 390 195 q 390 152 393 118 q 396 83 403 62 q 410 40 421 40 q 421 40 422 40 q 440 41 460 65 q 479 89 498 127 q 516 165 532 211 q 549 257 562 302 q 574 347 582 386 q 591 424 593 446 z"},"-":{"x_min":0,"x_max":475,"ha":475,"o":"m 124 418 l 367 416 q 379 416 385 406 q 391 395 391 382 q 391 369 386 359 q 380 349 370 349 l 124 351 q 112 351 106 362 q 100 372 100 385 q 100 398 106 408 q 112 418 124 418 z"},"E":{"x_min":0,"x_max":623,"ha":623,"o":"m 788 877 q 795 873 798 868 q 800 862 800 858 q 800 855 798 851 q 797 847 792 845 q 787 843 783 843 q 779 843 774 844 q 747 854 708 856 q 668 858 635 858 q 608 858 560 856 q 512 855 435 850 q 358 846 279 843 q 276 823 268 788 q 260 754 250 708 q 241 662 230 608 q 219 555 210 498 q 240 504 272 507 q 303 510 337 511 q 343 512 353 512 q 358 512 370 512 q 382 511 400 508 q 417 506 429 502 q 441 497 441 490 q 441 490 441 489 q 437 471 432 437 q 428 403 425 365 q 378 365 354 372 q 331 380 324 394 q 316 407 316 424 q 316 428 317 442 q 318 455 323 485 q 291 484 262 480 q 233 477 206 472 q 194 389 190 336 q 187 283 187 260 q 187 208 196 154 q 206 100 236 62 q 266 24 321 24 q 323 24 324 24 q 379 24 426 50 q 473 76 511 116 q 549 155 577 202 q 605 249 623 291 l 653 291 q 632 240 600 186 q 567 133 522 89 q 477 45 420 17 q 364 -11 296 -12 q 224 -12 177 12 q 130 37 103 78 q 76 120 66 172 q 55 225 55 281 q 55 323 62 366 q 68 409 75 451 q 82 493 86 530 q 91 568 91 602 q 91 608 91 615 q 89 647 85 679 q 81 711 72 740 q 64 770 52 796 q 40 821 23 840 q 17 846 10 855 q 3 864 2 869 q 0 874 0 876 q 0 881 4 886 q 8 890 25 890 q 88 890 161 894 q 234 898 310 902 q 386 907 448 910 q 509 912 554 912 q 576 912 618 911 q 661 910 711 902 q 761 895 788 877 z m 117 647 q 136 743 153 839 q 129 838 106 838 q 83 838 61 839 q 88 801 101 752 q 114 702 117 647 z"},"s":{"x_min":0,"x_max":383,"ha":383,"o":"m 412 291 q 395 244 374 190 q 352 135 320 88 q 289 41 246 9 q 203 -23 143 -24 q 140 -24 137 -24 q 100 -24 72 -11 q 45 2 28 22 q 11 43 6 64 q 0 85 0 100 q 0 107 2 121 q 4 135 16 149 q 29 163 50 163 q 71 163 86 146 q 100 129 100 106 q 100 83 86 66 q 71 50 50 50 l 49 50 q 62 32 76 28 q 89 24 96 24 q 106 24 120 30 q 133 35 144 54 q 155 73 155 103 q 155 105 155 108 q 154 141 142 170 q 130 200 112 228 q 95 255 76 280 q 57 306 43 330 q 39 320 36 310 q 32 301 29 291 l 0 291 l 30 377 q 37 396 46 415 q 56 434 69 449 q 82 464 98 472 q 114 479 132 479 q 136 479 141 479 q 168 477 176 466 q 185 456 185 446 q 185 444 184 436 q 183 429 174 422 q 166 415 158 415 q 154 415 149 417 q 140 421 130 428 q 119 434 109 434 q 89 434 86 425 q 84 416 84 410 q 84 403 86 396 q 92 377 108 356 q 125 335 147 312 q 169 289 192 264 q 216 238 236 212 q 256 186 269 158 q 282 130 282 102 q 282 89 279 77 q 296 100 313 132 q 330 163 344 194 q 358 224 368 250 q 378 277 383 291 z"},">":{"x_min":0,"x_max":394,"ha":394,"o":"m 33 -20 q 87 46 140 112 q 194 178 248 244 q 209 307 170 369 q 131 431 93 494 q 90 499 90 503 q 90 507 94 512 q 97 518 106 522 q 114 526 123 526 q 124 526 130 526 q 135 525 140 516 l 310 241 l 77 -47 q 73 -52 65 -52 q 64 -52 58 -52 q 53 -51 44 -46 q 36 -41 33 -36 q 30 -30 30 -27 q 30 -23 33 -20 z"},"l":{"x_min":0,"x_max":283,"ha":283,"o":"m 312 291 q 305 271 294 241 q 282 211 268 179 q 253 147 236 115 q 218 83 198 58 q 179 32 157 16 q 135 0 111 0 q 75 0 52 14 q 28 29 14 54 q 1 79 -4 112 q -9 144 -9 180 q -8 241 4 323 q 16 405 34 495 q 52 585 74 676 q 96 766 117 845 q 127 845 148 843 q 169 841 189 836 q 209 831 222 824 q 235 816 235 807 q 235 805 234 803 l 230 787 q 211 708 190 612 q 169 517 151 422 q 133 328 121 245 q 109 162 108 108 q 108 75 113 56 q 118 37 129 37 q 142 37 158 52 q 173 68 188 92 q 204 115 220 144 q 235 174 248 202 q 260 231 270 254 q 279 278 283 291 z"},"8":{"x_min":0,"x_max":570,"ha":570,"o":"m 374 454 q 436 436 472 395 q 507 354 516 316 q 524 278 524 252 q 524 225 514 184 q 505 142 470 98 q 434 53 380 26 q 326 0 259 0 q 251 0 244 0 q 162 3 112 34 q 61 64 40 108 q 20 151 20 197 q 20 204 22 235 q 24 266 50 316 q 75 366 121 405 q 167 444 229 458 q 175 474 145 510 q 115 545 108 576 q 102 607 102 626 q 102 652 112 688 q 121 723 150 760 q 179 798 223 822 q 267 845 323 845 q 326 845 328 845 q 393 844 437 818 q 481 793 504 754 q 527 715 528 688 q 530 662 530 655 q 530 615 514 575 q 499 535 464 501 q 428 467 374 454 z m 335 818 q 333 818 330 818 q 302 818 278 796 q 254 774 237 737 q 220 700 215 666 q 210 633 210 612 q 210 592 214 563 q 219 534 238 506 q 258 478 295 474 q 300 473 305 473 q 334 473 358 494 q 382 516 398 553 q 414 590 418 622 q 421 654 421 672 q 421 697 416 728 q 410 760 390 788 q 369 815 335 818 z m 240 27 q 245 27 250 27 q 283 27 311 53 q 339 79 358 124 q 378 168 384 209 q 390 250 390 277 q 390 300 385 334 q 380 369 358 402 q 337 434 299 437 q 297 437 294 437 q 262 437 234 410 q 206 383 186 339 q 166 295 158 252 q 150 208 150 176 q 150 160 154 128 q 157 97 178 64 q 199 31 240 27 z"},"\\":{"x_min":0,"x_max":495,"ha":495,"o":"m 358 35 q 359 33 359 31 q 359 23 350 16 q 340 9 329 6 q 318 4 310 4 q 304 4 294 6 q 284 8 281 19 l 31 910 q 30 913 30 915 q 30 923 39 930 q 48 938 59 941 q 70 944 78 944 q 84 944 94 942 q 104 940 107 928 q 170 703 232 482 q 295 260 358 35 z"},"e":{"x_min":0,"x_max":394,"ha":394,"o":"m 423 291 q 410 268 394 237 q 377 206 357 174 q 337 141 314 110 q 291 79 265 54 q 239 30 210 15 q 182 0 151 0 q 86 0 48 34 q 10 69 -2 112 q -15 156 -15 195 q -15 213 -10 252 q -6 292 20 344 q 45 395 88 429 q 130 463 186 463 q 229 463 251 442 q 273 420 273 391 q 273 389 273 388 q 273 369 264 350 q 255 330 237 312 q 219 294 192 280 q 164 266 127 259 q 120 220 119 196 q 118 173 118 166 q 118 136 124 108 q 129 81 143 62 q 157 43 182 43 q 210 43 241 71 q 272 99 301 138 q 330 178 354 220 q 379 263 394 291 z m 213 430 q 201 430 190 418 q 178 407 168 388 q 157 368 148 342 q 139 315 132 286 q 163 293 184 305 q 206 317 220 331 q 233 345 240 360 q 246 375 246 389 q 246 406 238 418 q 229 430 215 430 q 214 430 213 430 z"},"b":{"x_min":0,"x_max":526,"ha":526,"o":"m 557 291 q 537 244 503 196 q 469 149 426 110 q 383 71 333 44 q 283 18 229 11 q 212 6 194 4 q 176 1 156 1 q 114 1 83 14 q 52 27 32 50 q 11 74 1 107 q -9 140 -9 179 q -9 220 -2 278 q 5 335 16 400 q 26 465 39 532 q 52 600 66 660 q 80 721 93 769 q 106 817 117 844 q 127 844 148 842 q 169 840 189 835 q 209 830 222 822 q 235 815 235 806 q 235 804 234 802 l 230 786 q 217 732 203 670 q 189 608 176 544 q 162 479 150 414 q 137 350 128 292 q 139 323 152 350 q 166 377 182 398 q 197 419 215 431 q 233 443 252 444 q 257 444 261 444 q 291 444 316 431 q 342 418 360 393 q 377 368 386 335 q 394 302 394 266 q 394 263 394 260 q 394 206 378 158 q 361 111 329 74 q 361 92 390 117 q 420 142 446 170 q 471 199 492 230 q 512 261 526 291 z m 163 33 q 186 33 205 60 q 201 70 201 82 q 201 86 201 90 q 204 104 214 114 q 223 125 236 130 q 245 158 251 190 q 257 221 260 250 q 264 278 266 301 q 267 324 267 336 q 266 369 260 388 q 255 408 243 408 q 242 408 241 408 q 225 406 211 390 q 197 375 184 350 q 172 325 162 294 q 151 264 143 233 q 135 202 130 173 q 124 144 122 123 q 122 78 134 56 q 146 33 163 33 z"},"m":{"x_min":0,"x_max":791,"ha":791,"o":"m 820 291 q 813 270 802 240 q 790 211 776 178 q 761 146 744 114 q 726 82 706 57 q 687 32 665 16 q 643 0 619 0 q 575 0 549 20 q 523 40 511 73 q 499 106 498 132 q 497 158 497 168 q 497 201 502 240 q 506 279 514 322 q 523 364 531 398 q 505 372 486 330 q 467 287 452 240 q 437 192 426 146 q 414 100 404 68 q 393 33 375 16 q 357 -1 337 -1 q 306 -1 288 24 q 270 49 262 88 q 254 126 254 152 q 253 179 253 185 q 253 226 256 267 q 260 308 266 344 q 271 380 275 398 q 249 372 230 330 q 210 287 194 240 q 179 192 167 146 q 155 100 145 68 q 141 55 136 43 q 131 31 124 21 q 117 11 107 6 q 97 0 83 0 q 43 1 22 28 q 2 55 -4 92 q -11 129 -11 164 q -11 178 -9 212 q -7 245 0 296 q 8 347 17 390 q 26 434 32 459 q 42 459 63 457 q 84 455 104 450 q 124 445 137 438 q 150 430 150 421 q 150 419 149 417 q 143 392 134 345 q 125 298 118 246 q 110 195 107 160 q 104 124 104 106 q 104 84 107 68 q 108 62 110 62 q 111 61 111 61 q 113 61 115 67 q 121 87 130 118 q 138 149 148 185 q 159 221 172 259 q 185 297 201 332 q 217 366 236 394 q 255 421 278 437 q 286 443 306 443 q 307 443 319 442 q 331 442 352 437 q 374 432 388 424 q 403 415 403 406 q 403 405 403 403 q 395 371 387 328 q 379 285 373 240 q 367 195 363 152 q 359 109 359 77 q 359 61 361 56 q 363 51 364 51 q 365 51 366 52 q 367 53 370 60 q 374 68 377 79 q 386 113 400 164 q 413 216 432 270 q 451 323 476 369 q 501 415 534 437 q 542 443 562 443 q 563 443 575 442 q 587 442 608 437 q 630 432 644 424 q 659 415 659 406 q 659 405 659 403 q 654 382 646 346 q 639 311 632 270 q 626 230 622 188 q 617 147 616 127 q 616 107 616 102 q 616 76 620 56 q 624 37 637 37 q 650 37 666 52 q 681 68 696 92 q 712 115 728 144 q 743 174 756 202 q 768 231 778 254 q 787 278 791 291 z"},"#":{"x_min":0,"x_max":866,"ha":866,"o":"m 782 511 q 792 511 795 502 q 798 494 798 486 q 798 482 797 474 q 796 466 790 456 q 783 446 772 446 l 597 447 l 579 309 l 746 309 q 756 309 760 300 q 763 292 763 283 q 763 280 762 272 q 761 264 754 254 q 748 244 737 244 l 570 245 l 540 21 q 538 9 528 4 q 517 -1 504 -1 q 492 -1 484 4 q 475 8 475 16 q 475 17 475 19 l 505 245 l 324 245 l 294 21 q 292 9 282 4 q 271 -1 258 -1 q 246 -1 238 4 q 229 8 229 16 q 229 17 229 19 l 259 245 l 69 246 q 58 246 54 255 q 50 264 50 272 q 50 275 51 283 q 52 291 59 301 q 66 311 77 311 l 267 310 l 286 447 l 104 448 q 93 448 89 457 q 85 466 85 474 q 85 477 86 484 q 87 492 94 502 q 101 512 112 512 l 295 512 l 321 711 q 322 723 334 728 q 345 734 357 734 q 369 734 378 729 q 386 724 386 715 q 386 713 386 711 l 360 512 l 541 512 l 568 711 q 569 723 580 728 q 591 734 604 734 q 616 734 624 729 q 633 724 633 713 q 633 712 633 711 l 606 511 z m 532 447 l 351 447 l 333 310 l 514 310 z"},",":{"x_min":0,"x_max":230,"ha":230,"o":"m 150 141 q 174 130 180 112 q 186 94 186 82 q 186 69 182 56 q 172 27 146 10 q 120 -7 90 -12 q 82 -12 79 -8 q 76 -3 76 2 q 76 7 79 12 q 82 16 88 17 q 93 18 97 18 q 101 19 106 21 q 100 23 97 25 q 73 36 66 54 q 60 72 60 82 q 60 96 66 109 q 77 133 95 140 q 113 147 124 147 q 137 147 150 141 z"},"n":{"x_min":0,"x_max":533,"ha":533,"o":"m 562 291 q 555 270 544 240 q 532 211 518 178 q 503 146 486 114 q 468 82 448 57 q 429 32 407 16 q 385 0 361 0 q 317 0 291 20 q 265 40 253 73 q 241 106 240 132 q 239 158 239 168 q 239 201 244 240 q 248 279 256 322 q 265 364 273 398 q 247 372 228 330 q 209 287 194 240 q 179 192 168 146 q 156 100 146 68 q 142 56 137 44 q 132 32 124 22 q 117 12 107 6 q 97 0 83 0 q 43 1 22 28 q 2 55 -4 92 q -11 129 -11 164 q -11 178 -9 212 q -7 245 0 296 q 8 347 17 390 q 26 434 32 459 q 42 459 63 457 q 84 455 104 450 q 124 445 137 438 q 150 430 150 421 q 150 419 149 417 q 143 392 134 345 q 125 298 118 246 q 110 195 107 160 q 104 124 104 106 q 104 84 107 68 q 108 62 110 62 q 111 61 111 61 q 113 61 115 67 q 128 107 142 161 q 156 215 174 268 q 193 322 218 368 q 242 414 276 437 q 284 443 304 443 q 305 443 317 442 q 329 442 350 437 q 372 432 386 424 q 401 415 401 406 q 401 405 401 403 q 396 382 388 346 q 381 311 374 270 q 368 230 364 188 q 359 147 358 127 q 358 107 358 102 q 358 76 362 56 q 366 37 379 37 q 392 37 408 52 q 423 68 438 92 q 454 115 470 144 q 485 174 498 202 q 510 231 520 254 q 529 278 533 291 z"},"h":{"x_min":0,"x_max":546,"ha":546,"o":"m 575 291 q 568 270 556 240 q 545 211 530 178 q 516 146 499 114 q 482 82 462 57 q 442 32 420 16 q 398 0 374 0 q 330 0 304 20 q 278 40 266 73 q 254 106 253 132 q 252 158 252 168 q 252 201 256 240 q 261 279 270 322 q 278 364 286 398 q 260 372 240 330 q 221 287 206 240 q 190 192 178 146 q 166 100 156 68 q 147 39 134 20 q 120 0 95 0 q 94 0 93 0 q 62 0 42 20 q 22 39 10 66 q -1 94 -5 124 q -9 155 -9 179 q -8 240 4 322 q 16 404 34 494 q 52 584 74 674 q 96 765 117 844 q 127 844 148 842 q 169 840 189 835 q 209 830 222 822 q 235 815 235 806 q 235 804 234 802 q 212 716 192 630 q 173 543 155 455 q 133 351 118 258 q 103 166 102 107 q 102 96 102 87 q 102 64 104 51 q 106 38 111 38 q 116 38 124 62 q 132 87 142 125 q 152 163 166 209 q 180 255 198 300 q 216 344 238 381 q 261 418 289 437 q 297 443 316 443 q 318 443 330 442 q 341 442 363 437 q 385 432 400 424 q 414 415 414 406 q 414 405 414 403 q 409 382 402 346 q 394 311 388 270 q 381 230 376 188 q 372 147 372 127 q 371 107 371 102 q 371 76 375 56 q 379 37 392 37 q 405 37 420 52 q 436 68 452 92 q 467 115 482 144 q 498 174 510 202 q 523 231 532 254 q 542 278 546 291 z"},"z":{"x_min":0,"x_max":493,"ha":493,"o":"m 373 348 q 346 308 314 274 q 281 239 248 206 q 215 173 184 140 q 152 107 127 71 q 148 70 172 63 q 197 56 222 48 q 247 39 269 32 q 291 25 308 25 q 347 26 375 56 q 394 76 413 110 q 432 143 448 178 q 464 213 476 244 q 488 276 493 291 l 522 291 q 514 268 502 235 q 489 202 474 167 q 458 132 438 98 q 419 64 396 40 q 366 8 342 4 q 319 -1 302 -1 q 287 -1 264 3 q 240 7 206 17 q 173 27 137 27 q 124 27 116 24 q 108 22 103 18 q 98 14 94 10 q 90 6 86 3 q 79 -1 70 -1 q 69 -1 67 -1 q 50 -1 33 6 q 16 13 15 27 q 34 71 64 114 q 94 157 127 202 q 160 246 193 293 q 226 340 252 392 q 244 391 236 391 q 224 391 209 394 q 194 396 178 400 q 161 405 145 409 q 129 413 113 413 q 95 413 82 400 q 69 387 59 368 q 49 349 42 328 q 34 307 29 291 l 0 291 q 7 312 16 340 q 24 368 36 394 q 48 419 66 436 q 83 454 107 454 q 133 454 155 448 q 177 442 198 437 q 219 432 230 432 q 241 431 242 431 q 263 431 288 442 q 302 448 315 448 q 322 448 336 444 q 350 441 364 428 q 377 414 380 401 q 382 388 382 382 q 382 366 373 348 z"},"B":{"x_min":0,"x_max":880,"ha":880,"o":"m 855 865 q 923 864 954 827 q 984 790 984 734 q 984 733 984 704 q 983 676 956 608 q 928 541 878 479 q 829 417 762 370 q 695 322 616 305 q 673 282 705 242 q 737 201 742 170 q 748 140 748 124 q 748 95 736 59 q 724 23 689 -8 q 654 -40 615 -49 q 576 -58 551 -58 q 514 -58 472 -47 q 466 -45 463 -41 q 460 -37 460 -33 q 460 -32 460 -30 q 461 -27 466 -24 q 470 -21 479 -21 q 485 -22 491 -22 q 519 -22 546 -4 q 572 14 591 46 q 610 79 617 111 q 624 143 624 166 q 624 181 620 206 q 616 232 596 260 q 575 287 536 295 q 527 297 526 301 q 524 305 524 307 q 524 310 526 314 q 527 317 532 321 q 536 325 540 325 q 584 327 624 350 q 664 372 698 408 q 732 443 760 488 q 788 533 809 580 q 830 626 844 671 q 857 716 860 742 q 863 767 863 780 q 863 797 859 814 q 855 831 839 832 q 836 832 833 832 q 810 832 785 818 q 760 805 732 778 q 705 750 677 711 q 649 672 621 626 q 586 568 548 486 q 510 403 478 314 q 445 224 424 138 q 403 51 402 -15 q 402 -38 404 -52 q 407 -66 415 -71 q 426 -79 426 -86 q 426 -89 422 -94 q 419 -100 400 -100 q 398 -100 396 -100 q 364 -98 342 -84 q 321 -71 308 -49 q 295 -27 290 2 q 284 32 284 65 q 284 113 292 165 q 301 217 313 265 q 325 313 336 352 q 348 391 354 412 q 357 424 367 454 q 377 485 390 526 q 402 567 416 616 q 429 664 440 713 q 451 762 458 806 q 465 850 465 884 q 465 886 464 905 q 464 924 454 945 q 445 966 422 966 q 370 966 322 936 q 275 905 234 856 q 193 808 159 748 q 125 687 100 626 q 74 566 59 512 q 44 458 41 422 q 39 411 35 411 q 34 411 31 412 q 28 413 21 423 q 0 458 0 507 q 0 513 2 544 q 3 576 27 640 q 51 703 92 766 q 133 829 184 880 q 235 930 293 960 q 351 991 408 991 q 410 991 412 991 q 456 991 486 976 q 515 961 532 934 q 550 908 557 875 q 564 842 564 807 q 564 802 564 797 q 563 745 552 688 q 542 630 528 576 q 515 522 502 476 q 488 429 481 398 q 534 534 596 637 q 628 690 661 732 q 694 775 727 805 q 760 835 791 850 q 822 865 851 865 q 853 865 855 865 z"},"K":{"x_min":0,"x_max":912,"ha":912,"o":"m 941 291 q 933 271 920 236 q 908 202 892 165 q 877 128 858 93 q 838 58 815 36 q 783 5 760 3 q 738 1 733 1 q 697 1 664 24 q 632 47 608 84 q 583 120 564 162 q 546 203 533 244 q 520 286 513 319 q 494 265 478 214 q 461 163 448 118 q 435 73 426 36 q 416 0 411 -25 q 407 -43 394 -53 q 381 -63 371 -64 q 361 -65 358 -65 q 345 -65 330 -59 q 316 -53 305 -37 q 289 -14 286 14 q 283 41 283 63 q 283 80 285 110 q 287 139 296 184 q 304 229 315 272 q 326 314 336 351 q 347 388 354 413 q 357 425 367 456 q 377 486 390 527 q 402 568 416 616 q 429 665 440 714 q 451 763 458 807 q 465 851 465 885 q 465 887 464 906 q 464 925 454 946 q 444 967 422 967 q 370 967 322 936 q 275 906 234 858 q 193 809 159 748 q 125 688 100 628 q 74 567 59 513 q 44 459 41 423 q 39 412 34 412 q 34 412 31 412 q 28 413 21 424 q 0 459 0 508 q 0 514 2 546 q 3 577 27 640 q 51 704 92 767 q 133 830 184 880 q 235 931 293 962 q 351 992 408 992 q 410 992 412 992 q 456 992 486 977 q 515 962 532 936 q 550 909 557 876 q 564 842 564 807 q 564 802 564 797 q 563 745 552 688 q 542 630 528 576 q 515 521 502 474 q 488 427 481 397 q 478 385 471 356 q 464 327 454 288 q 445 249 435 204 q 425 158 417 114 q 435 179 460 256 q 486 334 517 412 q 548 490 584 564 q 619 637 658 694 q 696 751 737 786 q 778 820 820 820 q 828 820 847 818 q 866 816 884 812 q 903 807 916 801 q 929 795 929 789 q 929 788 928 787 q 923 768 914 736 q 906 703 899 665 q 852 669 830 678 q 807 688 802 700 q 796 713 796 725 q 796 733 800 749 q 803 765 811 794 q 776 789 741 755 q 706 721 672 668 q 638 614 606 546 q 573 478 545 405 q 557 409 570 412 q 583 414 594 414 q 604 414 612 411 q 619 408 620 401 q 625 372 635 326 q 645 279 659 230 q 673 180 690 135 q 706 90 724 64 q 739 41 749 38 q 759 34 763 34 q 777 34 795 50 q 813 68 832 102 q 851 137 867 174 q 883 212 895 244 q 907 277 912 291 z"},"R":{"x_min":0,"x_max":924,"ha":924,"o":"m 803 23 q 815 35 828 57 q 841 79 854 106 q 866 132 877 161 q 888 190 898 216 q 907 242 914 262 q 920 282 924 291 l 953 291 q 945 271 932 232 q 920 194 904 152 q 887 109 867 70 q 847 31 824 9 q 791 -22 768 -24 q 745 -27 740 -27 q 705 -27 672 -3 q 643 18 620 53 q 596 88 577 128 q 558 168 545 208 q 532 249 524 282 q 523 287 520 298 q 518 308 516 319 q 513 330 512 337 q 511 344 511 348 q 511 352 512 355 q 521 365 540 373 q 558 381 574 384 q 590 387 600 387 q 607 387 617 386 q 627 384 629 374 l 632 356 q 677 383 715 428 q 753 473 782 526 q 811 578 830 632 q 850 686 856 722 q 863 759 863 781 q 863 793 860 812 q 857 831 839 833 q 836 833 833 833 q 810 833 785 820 q 760 806 732 778 q 705 750 677 711 q 649 672 621 626 q 598 587 573 537 q 548 487 524 430 q 500 374 478 314 q 456 254 440 196 q 423 138 412 84 q 402 30 402 -14 q 402 -37 404 -51 q 407 -65 415 -70 q 426 -78 426 -85 q 426 -88 422 -94 q 419 -99 400 -99 q 398 -99 396 -99 q 364 -98 342 -84 q 321 -71 308 -48 q 295 -26 290 4 q 284 33 284 66 q 284 114 292 166 q 301 218 313 266 q 325 314 336 353 q 348 392 354 413 q 357 425 367 456 q 377 486 390 527 q 402 568 416 616 q 429 665 440 714 q 451 763 458 807 q 465 851 465 885 q 465 887 464 906 q 464 925 454 946 q 444 967 422 967 q 370 967 322 936 q 275 906 234 858 q 193 809 159 748 q 125 688 100 628 q 74 567 59 513 q 44 459 41 423 q 39 412 34 412 q 34 412 31 412 q 28 413 21 424 q 0 459 0 508 q 0 514 2 546 q 3 577 27 640 q 51 704 92 767 q 133 830 184 880 q 235 931 293 962 q 351 992 408 992 q 410 992 412 992 q 456 992 486 977 q 515 962 532 936 q 550 909 557 876 q 564 842 564 807 q 564 802 564 797 q 563 745 552 688 q 542 631 528 577 q 515 523 502 476 q 488 430 481 399 q 534 535 596 638 q 628 691 661 734 q 694 776 727 806 q 760 836 791 851 q 822 866 851 866 q 853 866 855 866 q 922 865 953 829 q 984 793 984 766 q 985 738 985 737 q 985 684 960 619 q 934 554 888 493 q 841 432 778 382 q 715 333 641 311 q 648 277 658 238 q 667 199 679 162 q 691 124 704 92 q 718 59 733 37 q 749 13 758 10 q 768 6 771 6 q 785 6 803 23 z"},"T":{"x_min":0,"x_max":595,"ha":595,"o":"m 1011 922 q 1018 918 1020 913 q 1023 908 1023 904 q 1023 901 1022 897 q 1020 893 1016 890 q 1011 888 1006 888 q 1003 888 998 889 q 972 897 945 898 q 918 898 908 898 q 870 898 817 894 q 764 891 696 884 q 627 878 555 872 q 577 865 577 854 q 577 852 576 850 l 572 835 q 534 689 500 532 q 465 376 432 223 q 422 177 414 130 q 405 83 401 50 q 397 16 397 -5 q 397 -15 398 -33 q 400 -51 411 -58 q 421 -65 421 -72 q 421 -75 418 -80 q 414 -86 395 -86 q 393 -86 391 -86 q 341 -83 316 -53 q 291 -23 285 13 q 279 49 279 79 q 279 101 283 141 q 287 181 299 236 q 301 262 304 290 q 306 319 310 349 q 316 405 322 464 q 327 523 327 582 q 327 663 310 735 q 294 807 248 856 q 170 857 111 866 q 52 876 20 900 q 3 912 2 918 q 0 924 0 927 q 0 933 6 938 q 11 943 24 946 q 38 950 54 951 q 111 951 155 939 q 199 927 232 905 q 294 907 368 914 q 442 921 519 928 q 596 936 672 942 q 747 948 786 949 q 826 950 839 950 q 889 950 936 944 q 982 939 1011 922 z m 61 926 q 78 916 106 912 q 135 907 173 905 q 126 925 61 926 z m 349 461 q 373 565 400 667 q 426 769 453 864 q 409 861 367 859 q 325 857 285 856 q 326 804 340 733 q 355 662 355 582 q 355 521 349 461 z"},"P":{"x_min":0,"x_max":885,"ha":885,"o":"m 855 865 q 910 864 941 838 q 972 812 980 780 q 987 748 987 723 q 987 699 980 659 q 973 619 948 563 q 922 507 882 453 q 843 399 793 356 q 743 314 684 288 q 624 261 559 260 q 548 260 544 264 q 539 269 539 275 q 539 281 542 286 q 546 291 551 291 q 595 293 634 317 q 674 341 708 379 q 741 417 768 465 q 795 513 815 563 q 835 613 847 660 q 859 708 862 734 q 864 761 864 773 q 864 793 860 812 q 855 831 839 832 q 836 832 833 832 q 810 832 785 818 q 760 805 732 778 q 705 750 677 711 q 649 672 621 626 q 586 568 548 486 q 510 403 478 314 q 445 224 424 138 q 403 51 402 -15 q 402 -38 404 -52 q 407 -66 415 -71 q 426 -79 426 -86 q 426 -89 422 -94 q 419 -100 400 -100 q 398 -100 396 -100 q 364 -98 342 -84 q 321 -71 308 -49 q 295 -27 290 2 q 284 32 284 65 q 284 113 292 165 q 301 217 313 265 q 325 313 336 352 q 348 391 354 412 q 357 424 367 454 q 377 485 390 526 q 402 567 416 616 q 429 664 440 713 q 451 762 458 806 q 465 850 465 884 q 465 886 464 905 q 464 924 454 945 q 444 966 422 966 q 370 966 322 936 q 275 905 234 856 q 193 808 159 748 q 125 687 100 626 q 74 566 59 512 q 44 458 41 422 q 39 411 35 411 q 34 411 31 412 q 28 413 21 423 q 0 458 0 507 q 0 513 2 544 q 3 576 27 640 q 51 703 92 766 q 133 829 184 880 q 235 930 293 960 q 351 991 408 991 q 410 991 412 991 q 456 991 486 976 q 515 961 532 934 q 550 908 557 875 q 564 842 564 807 q 564 802 564 797 q 563 745 552 688 q 542 630 528 576 q 515 522 502 476 q 488 429 481 398 q 534 534 596 637 q 628 690 661 732 q 694 775 727 805 q 760 835 791 850 q 822 865 851 865 q 853 865 855 865 z"},"|":{"x_min":0,"x_max":286,"ha":286,"o":"m 179 936 l 167 10 q 167 -2 156 -7 q 146 -12 134 -12 q 121 -12 110 -6 q 100 -1 100 9 q 103 242 106 472 q 109 703 111 936 q 111 948 122 954 q 133 960 146 960 q 158 960 168 954 q 179 948 179 936 z"},"t":{"x_min":0,"x_max":284,"ha":284,"o":"m 130 292 q 121 237 116 190 q 110 143 110 108 q 110 103 110 97 q 110 72 114 54 q 119 37 131 37 q 144 37 160 52 q 175 68 190 92 q 206 115 221 144 q 236 174 248 202 q 261 231 270 254 q 280 278 284 291 l 314 291 q 306 271 295 241 q 284 211 270 179 q 255 147 238 115 q 220 83 200 58 q 180 32 158 16 q 136 0 113 0 q 77 0 53 14 q 29 29 16 54 q 2 79 -2 109 q -7 139 -7 168 q -7 174 -7 180 q -6 266 12 370 q 29 474 55 586 l -55 586 q -64 586 -68 590 q -72 595 -72 600 q -72 605 -68 610 q -64 614 -55 614 l 61 614 q 71 655 81 695 q 91 735 102 775 q 112 775 133 773 q 154 771 174 766 q 193 762 206 754 q 219 747 219 738 q 219 736 218 734 l 191 614 l 305 614 q 315 614 320 610 q 324 605 324 600 q 324 595 320 590 q 315 586 307 586 l 184 586 q 168 511 154 436 q 141 362 130 292 z"},"M":{"x_min":0,"x_max":1294,"ha":1294,"o":"m 1323 291 q 1315 273 1304 244 q 1293 215 1278 182 q 1264 150 1247 118 q 1230 85 1210 59 q 1190 33 1168 16 q 1146 0 1123 0 q 1087 0 1063 13 q 1039 26 1026 48 q 1012 71 1007 100 q 1002 130 1002 162 q 1003 215 1016 294 q 1030 373 1050 460 q 1071 547 1094 635 q 1118 723 1139 794 q 1102 789 1065 748 q 1028 706 992 642 q 956 578 922 499 q 889 420 861 339 q 833 258 810 182 q 787 106 773 49 q 769 34 748 26 q 728 18 716 18 q 704 17 702 17 q 681 17 662 25 q 644 33 643 50 q 643 61 643 71 q 643 120 651 174 q 659 227 674 286 q 689 344 706 402 q 724 460 740 516 q 756 573 766 628 q 777 683 778 736 q 778 748 778 760 q 777 772 773 779 q 769 786 764 786 q 760 787 760 787 q 751 787 736 778 q 696 754 658 696 q 621 639 586 563 q 552 487 522 400 q 493 314 469 233 q 445 152 428 84 q 412 16 404 -23 q 400 -41 386 -52 q 373 -62 362 -63 q 352 -64 348 -64 q 335 -64 320 -58 q 304 -53 294 -37 q 279 -14 276 14 q 273 43 273 67 q 273 82 274 110 q 276 139 284 184 q 293 229 304 272 q 314 314 324 351 q 334 388 341 413 q 344 425 354 456 q 363 486 375 527 q 387 568 400 616 q 413 665 424 714 q 434 763 441 807 q 448 851 448 885 q 448 887 448 906 q 447 925 438 946 q 428 967 406 967 q 356 967 310 936 q 265 906 226 858 q 186 809 153 748 q 120 688 96 628 q 72 567 57 513 q 42 459 39 423 q 38 412 33 412 q 33 412 30 412 q 27 413 20 424 q 0 459 0 507 q 0 513 2 545 q 3 577 26 640 q 48 704 88 767 q 127 830 176 880 q 226 931 282 962 q 338 992 393 992 q 395 992 397 992 q 439 992 468 977 q 496 962 513 936 q 530 909 536 876 q 543 842 543 807 q 543 802 543 797 q 542 745 532 688 q 522 630 509 576 q 496 521 483 474 q 470 427 463 397 q 460 385 453 356 q 446 327 437 288 q 428 249 418 204 q 409 158 402 114 q 419 179 442 256 q 466 334 494 412 q 523 490 556 564 q 589 637 624 694 q 660 751 699 786 q 738 820 778 820 q 806 820 826 808 q 846 796 858 777 q 870 758 876 734 q 881 711 881 689 q 881 652 874 612 q 867 571 857 532 q 847 494 836 459 q 826 424 820 397 q 817 385 810 356 q 803 327 794 288 q 785 249 776 204 q 766 158 759 114 q 775 175 798 247 q 821 319 848 392 q 875 466 906 536 q 938 607 972 665 q 1006 723 1042 762 q 1079 802 1117 815 q 1133 820 1158 820 q 1184 820 1208 814 q 1232 809 1247 800 q 1262 791 1262 780 q 1262 778 1261 775 q 1258 769 1257 760 q 1244 713 1230 654 q 1215 596 1200 533 q 1184 470 1170 406 q 1156 342 1145 284 q 1134 226 1127 178 q 1120 129 1120 97 q 1120 92 1120 88 q 1120 65 1124 49 q 1129 33 1140 33 q 1153 33 1168 49 q 1184 65 1200 90 q 1216 114 1231 144 q 1246 175 1258 204 q 1271 232 1280 256 q 1290 279 1294 291 z"},"g":{"x_min":0,"x_max":460,"ha":460,"o":"m 266 397 q 278 441 299 447 q 320 453 330 453 q 355 453 385 437 q 373 405 368 352 q 362 300 358 235 q 354 170 350 98 q 346 25 337 -46 q 328 -117 313 -182 q 298 -246 272 -295 q 245 -344 206 -373 q 167 -402 110 -402 q 77 -402 50 -382 q 23 -363 3 -336 q -17 -308 -28 -276 q -38 -245 -38 -219 q -38 -193 -25 -172 q -12 -150 20 -140 q 26 -140 30 -144 q 35 -148 38 -154 q 40 -159 40 -166 q 40 -172 37 -176 q 14 -184 4 -199 q -5 -214 -5 -234 q -5 -254 4 -280 q 13 -306 28 -328 q 44 -350 62 -361 q 80 -372 97 -372 q 104 -372 111 -371 q 124 -369 137 -345 q 150 -321 162 -282 q 175 -243 186 -192 q 198 -141 208 -84 q 218 -27 228 32 q 237 92 245 148 q 223 89 192 49 q 162 9 125 7 q 120 7 116 7 q 67 7 36 37 q 4 67 -7 108 q -18 149 -18 185 q -18 203 -14 242 q -9 280 16 330 q 40 379 82 412 q 123 444 181 444 q 209 444 230 431 q 252 418 266 397 z m 136 43 q 152 44 168 62 q 183 80 196 107 q 209 134 220 168 q 230 201 238 234 q 246 266 251 295 q 256 324 257 342 q 255 356 249 368 q 243 381 236 390 q 228 400 220 406 q 211 411 205 411 q 186 411 169 384 q 152 357 140 316 q 127 274 119 226 q 111 177 110 154 q 110 130 110 125 q 110 91 116 67 q 121 43 134 43 q 135 43 136 43 z"},"j":{"x_min":0,"x_max":241,"ha":241,"o":"m 85 621 q 86 622 91 622 q 95 622 107 621 q 119 620 138 616 q 157 613 170 607 q 184 601 184 594 q 184 593 184 592 q 179 575 172 545 q 166 515 160 480 q 118 484 98 494 q 79 505 75 518 q 71 531 71 542 q 71 552 74 570 q 78 589 85 621 z m 49 412 q 57 431 70 440 q 83 449 94 450 q 104 452 110 452 q 121 452 134 448 q 148 445 163 437 q 151 405 146 352 q 140 300 136 235 q 132 170 128 98 q 124 25 115 -46 q 106 -117 91 -182 q 76 -246 50 -295 q 23 -344 -16 -373 q -55 -402 -112 -402 q -145 -402 -172 -382 q -199 -363 -219 -336 q -239 -308 -250 -276 q -260 -245 -260 -219 q -260 -193 -247 -172 q -234 -150 -202 -140 q -196 -140 -192 -144 q -187 -148 -184 -154 q -182 -159 -182 -166 q -182 -172 -185 -176 q -208 -184 -218 -199 q -227 -214 -227 -234 q -227 -254 -218 -280 q -209 -306 -194 -328 q -178 -350 -160 -361 q -142 -372 -125 -372 q -118 -372 -111 -371 q -96 -368 -81 -338 q -66 -307 -52 -258 q -38 -209 -26 -146 q -13 -83 -2 -16 q 9 51 18 118 q 28 185 36 242 q 39 266 40 286 q 41 305 41 322 q 37 312 34 304 q 32 296 30 290 l 0 290 q 8 313 21 345 q 34 377 49 412 z"},"i":{"x_min":0,"x_max":282,"ha":282,"o":"m 160 485 q 109 490 86 502 q 64 515 61 530 q 58 544 58 553 q 58 568 64 592 q 70 616 78 655 q 79 656 86 656 q 91 656 104 655 q 118 654 139 650 q 160 645 175 638 q 190 631 190 624 q 190 622 190 621 q 184 601 176 564 q 168 527 160 485 z m 311 291 q 303 271 292 241 q 281 211 266 179 q 252 147 234 115 q 217 83 198 58 q 178 32 156 16 q 134 0 110 0 q 59 0 32 28 q 6 57 -2 95 q -10 133 -10 170 q -10 184 -8 218 q -6 252 2 302 q 5 321 10 344 q 15 367 20 389 q 25 411 29 430 q 33 448 35 459 q 45 459 66 457 q 87 455 107 450 q 127 445 140 438 q 154 430 154 421 q 154 419 153 417 q 148 396 140 360 q 133 324 126 282 q 119 239 114 196 q 109 152 108 131 q 108 110 108 104 q 108 78 112 58 q 115 37 128 37 q 141 37 156 52 q 172 68 188 92 q 203 115 218 144 q 234 174 246 202 q 259 231 268 254 q 278 278 282 291 z"},"y":{"x_min":0,"x_max":465,"ha":465,"o":"m 270 401 q 284 443 304 448 q 323 453 332 453 q 357 453 388 437 q 376 405 370 352 q 365 300 361 235 q 357 170 353 98 q 349 25 340 -46 q 331 -117 316 -182 q 301 -246 274 -295 q 248 -344 209 -373 q 170 -402 113 -402 q 80 -402 53 -382 q 26 -363 6 -336 q -14 -308 -24 -276 q -35 -245 -35 -219 q -35 -193 -22 -172 q -9 -150 23 -140 q 29 -140 34 -144 q 38 -148 40 -154 q 43 -159 43 -166 q 43 -172 40 -176 q 17 -184 8 -199 q -2 -214 -2 -234 q -2 -254 7 -280 q 16 -306 32 -328 q 47 -350 65 -361 q 83 -372 100 -372 q 107 -372 114 -371 q 127 -368 140 -342 q 154 -316 167 -274 q 180 -232 192 -178 q 204 -124 215 -66 q 226 -8 235 50 q 244 107 250 156 q 257 206 261 244 q 265 281 266 299 q 257 271 246 238 q 236 204 224 170 q 212 136 197 104 q 182 73 164 50 q 145 26 124 14 q 102 2 78 2 q 75 2 71 2 q 34 5 15 34 q -4 64 -8 99 q -13 134 -13 161 q -13 183 -10 222 q -6 260 2 310 q 11 360 20 400 q 29 440 33 459 q 43 459 64 457 q 85 455 106 450 q 126 445 139 438 q 152 430 152 421 q 152 419 151 417 q 149 408 143 378 q 137 348 130 308 q 122 268 116 224 q 109 180 106 146 q 103 112 103 91 q 103 85 104 70 q 104 54 112 52 q 113 52 114 52 q 124 52 137 69 q 150 86 164 116 q 179 147 194 186 q 208 225 222 264 q 236 304 248 340 q 261 376 270 401 z"},".":{"x_min":0,"x_max":240,"ha":240,"o":"m 136 0 q 109 0 90 19 q 70 38 70 66 q 70 93 90 112 q 109 132 136 132 q 163 132 182 112 q 202 93 202 66 q 202 38 182 19 q 163 0 136 0 z"},"p":{"x_min":0,"x_max":522,"ha":522,"o":"m 551 291 q 531 244 498 198 q 465 151 423 112 q 381 74 332 47 q 282 20 229 13 q 224 11 218 11 q 212 11 206 10 q 170 10 144 30 q 118 50 107 81 q 102 26 96 -30 q 91 -86 84 -140 q 77 -195 68 -246 q 58 -297 45 -340 q 34 -340 14 -338 q -5 -336 -24 -331 q -43 -326 -56 -318 q -68 -311 -68 -302 q -68 -300 -67 -298 q -31 -153 -4 4 q 22 160 35 308 l 30 291 l 0 291 q 8 314 17 346 q 26 378 41 413 q 49 432 62 441 q 75 450 86 452 q 96 453 102 453 q 113 453 126 450 q 140 446 155 438 q 144 411 137 370 q 130 328 124 277 q 134 311 147 342 q 160 373 176 396 q 192 420 210 434 q 229 449 250 451 q 256 451 262 451 q 295 451 322 436 q 350 420 368 390 q 386 360 392 328 q 397 295 397 268 q 397 254 394 226 q 392 198 378 157 q 364 116 340 84 q 370 102 398 126 q 425 150 448 177 q 471 204 490 233 q 509 262 522 291 z m 127 113 q 129 99 136 86 q 142 73 150 64 q 158 54 166 48 q 174 43 180 43 q 193 43 204 56 q 197 67 197 81 q 197 86 198 91 q 200 108 212 119 q 224 130 241 133 q 253 175 260 225 q 268 275 268 298 q 269 321 269 324 q 269 363 262 389 q 255 415 242 415 q 241 415 240 415 q 223 413 208 395 q 194 377 182 350 q 169 322 160 288 q 150 255 143 222 q 136 189 132 160 q 128 131 127 113 z"},"X":{"x_min":0,"x_max":820,"ha":820,"o":"m 849 291 q 843 278 836 252 q 829 226 820 194 q 810 162 799 128 q 788 93 776 60 q 763 28 749 2 q 735 -25 720 -39 q 703 -55 685 -65 q 667 -75 654 -76 q 642 -77 638 -77 q 622 -77 603 -72 q 584 -66 560 -49 q 529 -27 506 10 q 483 48 466 93 q 450 138 440 187 q 429 236 422 281 q 398 230 374 182 q 349 134 320 91 q 291 48 258 11 q 224 -26 182 -55 q 179 -57 176 -57 q 175 -57 172 -56 q 168 -55 164 -51 q 161 -47 161 -42 q 161 -37 166 -33 q 209 -3 244 37 q 279 77 308 124 q 338 171 364 224 q 390 276 415 332 l 405 415 q 403 427 400 457 q 397 487 392 528 q 386 568 378 615 q 371 662 361 708 q 351 755 338 797 q 326 839 311 870 q 296 900 281 912 q 266 925 252 925 q 246 925 239 923 q 191 907 158 868 q 126 829 107 777 q 88 725 80 667 q 73 609 73 554 q 73 551 74 520 q 74 489 82 438 q 89 387 100 352 q 102 347 102 344 q 102 340 100 340 q 98 339 98 339 q 91 339 82 347 q 44 375 24 426 q 4 476 2 512 q 0 549 0 562 q 0 610 12 668 q 23 725 50 782 q 78 839 120 882 q 163 926 219 944 q 252 955 280 955 q 297 955 326 948 q 354 940 384 910 q 415 879 437 834 q 459 788 474 737 q 489 686 498 633 q 508 580 515 535 q 557 629 602 722 q 648 814 709 895 q 712 899 716 899 q 716 899 719 898 q 722 898 726 895 q 731 892 732 889 q 734 886 734 885 q 734 882 731 879 q 665 791 616 688 q 568 585 523 482 l 529 440 q 531 427 536 396 q 541 366 548 326 q 554 285 563 238 q 572 192 582 148 q 593 103 606 64 q 618 25 633 0 q 638 -9 646 -18 q 653 -26 661 -30 q 669 -35 676 -35 q 678 -35 684 -34 q 689 -34 699 -24 q 711 -12 724 13 q 737 38 750 70 q 762 102 773 137 q 784 172 794 203 q 803 234 810 258 q 816 282 820 291 z"},"*":{"x_min":0,"x_max":322,"ha":322,"o":"m 260 860 q 264 862 268 862 q 274 862 280 857 q 287 852 290 844 q 292 837 292 831 q 292 827 290 820 q 289 813 279 810 l 196 791 l 252 730 q 257 724 257 717 q 257 714 255 708 q 253 701 244 695 q 236 689 226 689 q 216 689 209 698 l 165 770 l 123 698 q 117 689 106 689 q 96 689 88 695 q 80 701 78 708 q 75 714 75 717 q 75 723 79 729 l 135 792 l 55 809 q 44 812 42 820 q 40 827 40 832 q 40 837 42 844 q 44 851 50 856 q 57 861 64 861 q 67 861 71 860 l 145 829 l 140 910 q 140 921 148 926 q 157 932 166 932 q 167 932 172 932 q 178 931 186 925 q 194 919 194 908 l 183 826 z"},"Y":{"x_min":0,"x_max":746,"ha":746,"o":"m 728 872 q 758 872 774 862 q 790 852 790 838 q 790 825 775 814 q 760 803 728 798 q 709 755 696 701 q 683 647 673 590 q 663 533 656 477 q 648 421 640 374 q 635 344 630 296 q 625 247 617 192 q 609 136 597 78 q 585 21 566 -29 q 551 -68 530 -100 q 510 -132 484 -152 q 457 -171 435 -174 q 413 -178 402 -178 q 377 -178 349 -170 q 293 -154 246 -109 q 198 -64 162 -4 q 127 55 105 123 q 83 191 80 230 q 77 270 77 285 q 77 332 90 378 q 103 425 141 455 q 151 463 157 463 q 158 463 160 462 q 162 462 162 458 q 162 455 160 450 q 149 415 148 382 q 147 350 147 337 q 147 294 153 240 q 159 185 176 121 q 192 57 218 2 q 245 -53 282 -94 q 319 -134 368 -149 q 374 -151 380 -151 q 394 -151 409 -136 q 424 -121 438 -88 q 452 -55 462 -10 q 473 36 481 86 q 489 135 495 185 q 501 235 505 278 q 509 320 512 352 q 514 383 515 395 q 517 411 519 435 q 521 459 524 488 q 527 517 532 550 q 536 583 543 616 q 523 572 502 525 q 481 478 460 433 q 439 388 417 346 q 395 304 373 271 q 362 254 348 242 q 333 230 313 230 q 312 230 310 230 q 283 231 265 243 q 247 255 236 272 q 226 288 221 308 q 216 328 216 346 q 216 350 216 355 q 216 417 230 479 q 243 541 260 604 q 278 667 292 730 q 307 794 307 861 q 307 905 294 908 q 282 912 276 912 q 258 912 229 898 q 202 884 178 858 q 154 833 134 802 q 114 770 98 735 q 82 700 70 666 q 59 632 52 602 q 45 572 44 551 q 43 540 34 540 q 33 540 28 540 q 23 541 16 552 q 0 577 0 612 q 0 614 0 634 q 1 655 16 698 q 31 741 58 784 q 84 826 119 860 q 154 894 196 916 q 237 937 281 937 q 311 937 333 927 q 355 917 369 899 q 383 881 390 857 q 397 833 397 805 q 397 740 384 676 q 372 613 358 550 q 343 486 331 422 q 319 358 319 291 q 319 275 322 270 q 324 264 328 264 q 329 264 332 265 q 334 266 340 272 q 347 279 353 289 q 372 317 395 365 q 418 413 444 470 q 469 526 495 586 q 521 645 546 696 q 572 746 594 783 q 617 820 636 832 q 655 850 678 860 q 700 871 728 872 z"},"c":{"x_min":0,"x_max":394,"ha":394,"o":"m 423 291 q 410 268 394 237 q 377 206 357 174 q 337 141 314 110 q 291 79 265 54 q 239 30 210 15 q 182 0 151 0 q 86 0 48 34 q 10 69 -2 112 q -15 156 -15 195 q -15 213 -10 252 q -6 292 20 344 q 45 395 88 429 q 130 463 186 463 q 220 463 247 446 q 274 430 274 393 q 274 391 274 388 q 274 367 257 344 q 252 337 245 337 q 244 337 240 338 q 235 338 228 343 q 222 348 220 354 q 218 359 218 362 q 218 366 221 370 q 235 387 235 407 q 235 419 228 424 q 222 430 213 430 q 194 430 176 401 q 157 372 144 329 q 130 286 124 243 q 117 200 117 168 q 117 155 119 128 q 121 100 136 72 q 151 43 182 43 q 210 43 241 71 q 272 99 301 138 q 330 178 354 220 q 379 263 394 291 z"},"!":{"x_min":0,"x_max":343,"ha":343,"o":"m 219 798 q 223 798 229 798 q 237 798 254 797 q 271 796 291 792 q 311 788 324 781 q 337 774 337 764 q 337 763 337 761 q 337 761 337 761 q 337 760 337 760 q 337 760 337 760 q 337 759 336 759 q 336 759 336 758 q 336 758 336 758 q 336 758 336 757 q 336 757 336 757 q 336 757 336 756 q 336 756 336 756 q 336 756 336 755 q 336 755 335 755 q 335 755 335 754 q 335 754 335 754 q 335 754 335 753 q 335 753 335 753 q 334 749 333 744 q 324 696 312 638 q 299 579 287 518 q 275 456 264 394 q 252 332 245 277 q 242 251 222 238 q 202 226 180 226 q 159 226 144 237 q 128 248 128 267 q 128 270 128 274 q 134 334 144 402 q 155 469 167 538 q 179 607 192 674 q 206 741 219 798 z m 166 170 q 193 170 212 150 q 232 131 232 104 q 232 76 212 57 q 193 38 166 38 q 139 38 120 57 q 100 76 100 104 q 100 131 120 150 q 139 170 166 170 z"},"/":{"x_min":0,"x_max":330,"ha":330,"o":"m 302 928 q 305 940 314 942 q 324 944 330 944 q 338 944 349 941 q 360 938 370 930 q 379 923 379 915 q 379 912 378 910 l 127 19 q 124 8 114 6 q 104 4 98 4 q 90 4 79 6 q 68 9 58 16 q 49 23 49 31 q 49 33 50 35 z"},"6":{"x_min":0,"x_max":533,"ha":533,"o":"m 281 493 q 336 493 376 472 q 417 450 442 416 q 468 381 478 342 q 488 302 488 267 q 488 257 486 229 q 484 201 467 156 q 450 112 420 78 q 390 43 346 22 q 302 0 246 0 q 244 0 242 0 q 171 0 124 32 q 77 65 52 120 q 26 175 23 220 q 20 265 20 284 q 20 337 31 403 q 42 469 70 544 q 98 619 139 682 q 180 744 231 788 q 282 832 341 847 q 353 846 358 838 q 362 830 362 825 q 362 819 358 813 q 328 795 301 760 q 274 725 250 678 q 226 632 207 577 q 188 522 175 465 q 227 493 281 493 z m 259 32 q 292 32 319 64 q 346 96 362 144 q 379 191 382 227 q 386 263 386 279 q 386 315 376 356 q 366 396 336 427 q 307 458 255 458 q 210 458 167 427 q 150 339 150 263 q 150 247 152 224 q 154 201 158 175 q 163 149 171 123 q 179 97 191 77 q 203 57 219 44 q 235 32 256 32 q 257 32 259 32 z"},"r":{"x_min":0,"x_max":341,"ha":341,"o":"m 370 291 q 362 271 351 241 q 340 211 326 179 q 311 147 294 115 q 276 83 256 58 q 237 32 215 16 q 193 0 169 0 q 123 0 96 18 q 70 36 57 66 q 44 96 43 120 q 42 144 42 154 q 42 183 46 218 q 50 254 58 294 q 67 334 74 366 q 67 366 57 368 q 49 349 42 330 q 35 310 29 291 l 0 291 q 8 312 15 333 q 22 354 30 375 q 4 383 -6 397 q -16 411 -16 430 q -16 450 -10 476 q -3 502 4 534 q 5 535 12 535 q 17 535 30 534 q 44 533 65 528 q 86 524 101 517 q 116 510 116 503 q 116 501 116 500 q 111 483 104 455 q 98 427 92 394 q 105 393 124 390 q 144 388 161 383 q 178 378 188 371 q 198 364 198 356 q 198 354 197 352 q 192 331 186 300 q 180 268 174 233 q 169 198 166 165 q 162 132 162 107 q 162 104 162 88 q 163 72 168 54 q 174 37 187 37 q 200 37 216 52 q 231 68 246 92 q 262 115 278 144 q 293 174 306 202 q 318 231 328 254 q 337 278 341 291 z"},"2":{"x_min":0,"x_max":588,"ha":588,"o":"m 430 87 q 443 87 449 74 q 455 61 455 46 q 455 45 454 36 q 454 27 448 14 q 442 0 432 0 q 335 0 270 0 q 206 -1 173 -1 q 108 -1 43 0 q 29 0 24 4 q 20 9 20 15 q 20 16 20 20 q 21 24 26 32 q 32 40 40 46 q 63 65 100 93 q 136 121 176 159 q 217 197 258 245 q 299 293 332 352 q 364 412 384 484 q 405 555 405 640 q 405 682 396 713 q 388 744 374 764 q 361 785 344 795 q 327 805 309 805 q 276 805 256 784 q 237 764 228 736 q 219 707 218 688 q 218 670 218 665 q 218 642 221 625 q 214 606 198 598 q 183 591 167 591 q 165 591 155 592 q 145 592 130 601 q 115 610 111 625 q 109 638 109 652 q 109 680 122 714 q 134 747 164 778 q 195 808 237 826 q 279 845 326 845 q 375 845 414 828 q 452 812 478 784 q 504 756 518 718 q 532 680 532 637 q 532 547 502 468 q 471 389 420 320 q 369 251 304 193 q 238 135 169 87 z"},"9":{"x_min":0,"x_max":528,"ha":528,"o":"m 268 845 q 341 844 387 812 q 433 779 456 726 q 480 673 482 632 q 484 592 484 579 q 484 522 471 454 q 458 387 430 313 q 401 239 362 176 q 323 112 275 64 q 227 16 174 -6 q 173 -6 171 -6 q 169 -6 164 -5 q 159 -4 154 0 q 149 5 148 10 q 146 14 146 16 q 146 22 150 29 q 174 47 198 77 q 221 107 242 146 q 263 185 281 232 q 299 278 313 328 q 301 326 288 325 q 276 324 265 324 q 198 324 150 347 q 103 370 73 407 q 43 444 32 487 q 20 530 20 571 q 20 579 22 608 q 23 636 41 682 q 59 729 91 766 q 123 802 166 824 q 210 845 263 845 q 266 845 268 845 z m 356 584 q 356 599 356 622 q 355 644 352 670 q 349 696 343 722 q 337 747 327 768 q 317 789 302 802 q 286 815 265 815 q 240 815 218 795 q 195 775 177 742 q 159 710 147 668 q 135 627 132 596 q 129 566 129 548 q 129 523 134 490 q 138 457 155 424 q 172 392 202 372 q 231 352 276 352 q 298 352 322 358 q 337 415 346 472 q 354 530 356 584 z"}," ":{"x_min":0,"x_max":191,"ha":191,"o":""},"I":{"x_min":0,"x_max":575,"ha":575,"o":"m 412 991 q 456 991 486 976 q 515 961 532 934 q 550 908 557 875 q 564 842 564 807 q 564 802 564 797 q 563 744 552 686 q 542 629 528 574 q 515 520 502 473 q 488 426 481 396 q 478 385 472 358 q 465 332 456 296 q 448 260 438 218 q 429 175 421 133 q 413 91 408 52 q 402 14 402 -15 q 402 -38 404 -52 q 407 -66 415 -71 q 426 -79 426 -86 q 426 -89 422 -94 q 419 -100 400 -100 q 398 -100 396 -100 q 364 -98 342 -84 q 321 -71 308 -49 q 295 -27 290 2 q 284 32 284 65 q 284 113 292 165 q 301 217 313 265 q 325 313 336 352 q 348 391 354 412 q 357 424 367 454 q 377 485 390 526 q 402 567 416 616 q 429 664 440 713 q 451 762 458 806 q 465 850 465 884 q 465 886 464 905 q 464 924 454 945 q 444 966 422 966 q 370 966 322 936 q 275 905 234 856 q 193 808 159 748 q 125 687 100 626 q 74 566 59 512 q 44 458 41 422 q 39 411 35 411 q 34 411 31 412 q 28 413 21 423 q 0 458 0 507 q 0 513 2 544 q 3 576 27 640 q 51 703 92 766 q 133 829 184 880 q 235 930 293 960 q 351 991 408 991 q 410 991 412 991 z"},"H":{"x_min":0,"x_max":965,"ha":965,"o":"m 995 291 q 987 273 976 244 q 965 215 950 182 q 936 150 918 118 q 901 85 881 59 q 861 33 839 16 q 817 0 794 0 q 758 0 734 13 q 710 26 696 48 q 683 71 678 98 q 674 125 674 151 q 674 157 674 162 q 674 205 683 264 q 692 322 706 389 q 650 382 590 376 q 531 370 473 365 q 465 334 453 285 q 441 236 430 182 q 419 127 410 75 q 402 23 402 -14 q 402 -37 404 -51 q 407 -65 415 -70 q 426 -78 426 -85 q 426 -88 422 -94 q 419 -99 400 -99 q 398 -99 396 -99 q 364 -98 342 -84 q 321 -71 308 -48 q 295 -26 290 4 q 284 33 284 66 q 284 103 290 144 q 295 185 304 224 q 312 263 322 299 q 331 335 340 364 q 271 367 224 382 q 176 397 164 430 q 163 433 163 436 q 163 446 172 452 q 180 457 188 458 q 197 459 201 459 q 209 459 218 456 q 227 454 228 448 q 232 428 266 418 q 299 409 352 406 q 354 412 354 413 q 357 425 367 456 q 377 486 390 527 q 402 568 416 616 q 429 665 440 714 q 451 763 458 807 q 465 851 465 885 q 465 887 464 906 q 464 925 454 946 q 444 967 422 967 q 370 967 322 936 q 275 906 234 858 q 193 809 159 748 q 125 688 100 628 q 74 567 59 513 q 44 459 41 423 q 39 412 34 412 q 34 412 31 412 q 28 413 21 424 q 0 459 0 508 q 0 514 2 546 q 3 577 27 640 q 51 704 92 767 q 133 830 184 880 q 235 931 293 962 q 351 992 408 992 q 410 992 412 992 q 456 992 486 977 q 515 962 532 936 q 550 909 557 876 q 564 842 564 807 q 564 802 564 797 q 563 747 553 692 q 543 636 530 584 q 517 531 504 484 q 491 438 483 407 q 540 409 598 414 q 657 420 714 425 q 725 475 738 527 q 751 579 764 629 q 777 679 790 726 q 803 773 815 813 q 825 813 846 811 q 867 809 887 804 q 907 800 920 793 q 933 786 933 778 q 933 777 932 775 q 931 771 930 768 q 929 765 928 760 q 911 694 890 610 q 869 526 849 438 q 877 441 900 444 q 923 446 939 446 q 946 446 949 442 q 952 437 952 432 q 952 426 949 422 q 946 417 941 417 q 923 416 898 414 q 873 411 842 407 q 831 360 822 314 q 813 269 806 229 q 800 189 796 155 q 791 121 791 97 q 791 92 791 88 q 791 65 796 49 q 800 33 812 33 q 825 33 840 49 q 856 65 872 90 q 887 114 902 144 q 917 175 930 204 q 942 232 952 256 q 961 279 965 291 z"},"4":{"x_min":0,"x_max":553,"ha":553,"o":"m 495 367 q 508 367 514 355 q 520 343 520 329 q 520 315 514 303 q 508 291 498 291 l 431 291 q 421 224 411 158 q 401 91 389 23 q 387 11 368 6 q 349 1 332 1 q 326 1 310 2 q 295 3 278 14 q 261 24 261 43 q 261 46 261 49 q 271 110 280 170 q 288 230 297 291 l 39 291 q 28 291 24 298 q 20 306 20 315 q 20 316 20 322 q 21 328 25 339 q 29 350 35 356 q 55 378 84 408 q 112 439 144 475 q 176 511 210 552 q 243 593 274 636 q 305 680 331 725 q 357 770 374 814 q 381 832 400 838 q 420 845 436 845 q 443 845 459 842 q 475 840 491 828 q 507 816 507 798 q 507 794 506 790 q 486 683 471 578 q 456 473 442 367 z m 308 367 q 321 458 335 548 q 349 638 366 729 q 339 679 304 630 q 270 580 232 533 q 195 486 156 444 q 118 401 83 367 z"},"~":{"x_min":0,"x_max":536,"ha":536,"o":"m 105 298 q 136 327 158 332 q 181 338 197 338 q 209 338 228 334 q 246 330 270 318 q 295 306 317 297 q 339 288 358 288 q 378 288 396 306 q 400 310 404 310 q 406 310 411 308 q 416 307 421 301 q 426 295 428 290 q 429 284 429 282 q 429 276 425 272 q 399 237 376 227 q 354 217 334 217 q 329 217 315 218 q 301 220 278 231 q 254 242 230 252 q 206 262 191 264 q 176 266 170 266 q 151 266 131 257 q 128 256 124 256 q 121 256 115 258 q 109 261 104 268 q 100 275 100 280 q 99 284 99 285 q 99 292 105 298 z"},"D":{"x_min":0,"x_max":1012,"ha":1012,"o":"m 846 866 q 909 865 944 822 q 978 778 984 728 q 991 679 991 647 q 991 601 980 530 q 970 460 938 370 q 906 280 858 196 q 809 112 748 52 q 688 -8 632 -32 q 576 -55 531 -55 q 502 -55 472 -47 q 466 -45 463 -41 q 460 -37 460 -33 q 460 -32 460 -30 q 461 -27 466 -24 q 470 -21 479 -21 q 489 -22 499 -22 q 545 -22 590 8 q 636 38 678 96 q 721 155 754 232 q 788 309 812 390 q 837 472 850 550 q 864 629 866 666 q 867 703 867 714 q 867 759 858 792 q 849 825 827 825 q 827 825 826 825 q 802 825 776 810 q 751 794 725 768 q 699 741 672 705 q 646 669 621 626 q 559 522 505 384 q 451 246 413 86 q 408 57 405 31 q 402 5 402 -15 q 402 -38 404 -52 q 407 -66 415 -71 q 426 -79 426 -86 q 426 -89 422 -94 q 419 -100 400 -100 q 398 -100 396 -100 q 364 -98 342 -84 q 321 -71 308 -49 q 295 -27 290 2 q 284 32 284 65 q 284 113 292 165 q 301 217 313 265 q 325 313 336 352 q 348 391 354 412 q 357 424 367 454 q 377 485 390 526 q 402 567 416 616 q 429 664 440 713 q 451 762 458 806 q 465 850 465 884 q 465 886 464 905 q 464 924 454 945 q 444 966 422 966 q 370 966 322 936 q 275 905 234 856 q 193 808 159 748 q 125 687 100 626 q 74 566 59 512 q 44 458 41 422 q 39 411 35 411 q 34 411 31 412 q 28 413 21 423 q 0 458 0 507 q 0 513 2 544 q 3 576 27 640 q 51 703 92 766 q 133 829 184 880 q 235 930 293 960 q 351 991 408 991 q 410 991 412 991 q 456 991 486 976 q 515 961 532 934 q 550 908 557 875 q 564 842 564 807 q 564 802 564 797 q 563 745 552 688 q 542 630 528 576 q 515 522 502 476 q 488 429 481 398 q 534 534 596 637 q 611 663 638 702 q 664 742 698 778 q 731 815 768 840 q 806 866 843 866 q 845 866 846 866 z"},"^":{"x_min":0,"x_max":299,"ha":299,"o":"m 133 904 q 156 928 170 928 q 185 928 205 902 l 277 814 q 282 808 282 801 q 282 798 280 792 q 278 786 270 779 q 263 772 257 771 q 251 770 249 770 q 241 770 236 775 l 167 841 l 94 780 q 88 776 82 776 q 79 776 73 778 q 67 779 60 786 q 52 794 51 800 q 50 806 50 808 q 50 816 56 822 z"},"0":{"x_min":0,"x_max":604,"ha":604,"o":"m 323 845 q 389 844 435 806 q 481 768 508 708 q 536 647 544 586 q 551 526 551 480 q 551 447 546 390 q 541 333 518 258 q 494 182 456 124 q 417 65 366 32 q 315 0 256 0 q 250 0 245 0 q 175 4 128 42 q 82 80 56 140 q 30 201 25 254 q 20 308 20 340 q 20 385 28 448 q 36 510 62 585 q 87 660 126 718 q 164 776 214 810 q 263 845 320 845 q 321 845 323 845 z m 236 28 q 241 27 246 27 q 274 27 302 55 q 331 83 355 136 q 379 190 396 260 q 413 330 422 404 q 431 479 431 552 q 431 624 421 682 q 411 739 389 776 q 367 813 333 817 q 330 817 328 817 q 299 817 272 788 q 245 758 222 705 q 198 652 180 583 q 161 514 150 440 q 140 367 139 326 q 138 286 138 276 q 138 216 147 162 q 156 109 178 72 q 200 34 236 28 z"},"F":{"x_min":0,"x_max":744,"ha":744,"o":"m 1012 932 q 1019 928 1022 923 q 1024 918 1024 914 q 1024 911 1022 907 q 1021 903 1016 900 q 1012 898 1007 898 q 1004 898 999 899 q 971 908 943 908 q 915 909 910 909 q 862 909 799 904 q 736 900 660 892 q 583 885 504 878 q 496 797 486 713 q 475 629 462 541 q 513 549 570 549 q 599 549 630 547 q 639 547 656 544 q 674 542 692 538 q 709 535 720 530 q 731 524 731 518 q 731 517 730 515 q 724 497 716 464 q 708 431 700 393 q 653 397 630 406 q 608 416 603 429 q 598 442 598 454 q 598 462 601 478 q 604 494 612 523 q 592 524 572 524 q 513 524 458 515 q 447 440 435 367 q 423 294 411 223 q 405 187 396 150 q 387 113 375 80 q 363 46 347 18 q 331 -10 310 -29 q 289 -49 270 -56 q 250 -62 234 -62 q 228 -62 214 -60 q 200 -58 181 -44 q 162 -31 150 -8 q 129 32 122 72 q 115 112 115 145 q 115 160 118 192 q 120 225 136 274 q 151 322 178 365 q 204 408 240 443 q 277 478 323 500 q 330 539 330 590 q 330 641 322 692 q 313 744 295 790 q 277 836 249 866 q 171 867 112 876 q 53 886 21 910 q 4 922 2 928 q 1 934 1 937 q 1 943 6 948 q 12 953 26 956 q 39 960 55 961 q 112 961 156 949 q 200 937 233 915 q 295 917 369 924 q 443 931 520 938 q 597 946 672 952 q 748 958 788 959 q 827 960 840 960 q 890 960 936 954 q 983 949 1012 932 z m 62 936 q 79 926 108 922 q 137 917 174 915 q 127 935 62 936 z m 379 869 q 331 867 286 866 q 315 828 330 780 q 346 732 352 677 q 360 725 366 772 q 373 819 379 865 z m 280 247 q 289 302 298 357 q 308 412 318 468 q 280 447 249 414 q 218 380 196 340 q 173 299 160 254 q 147 209 145 180 q 143 151 143 138 q 143 107 150 70 q 156 34 176 0 q 186 -18 196 -18 q 206 -18 216 0 q 225 18 234 45 q 243 72 251 105 q 259 138 266 174 q 274 211 280 247 z"},"`":{"x_min":0,"x_max":536,"ha":536,"o":"m 170 639 q 164 644 164 651 q 164 655 167 663 q 170 671 180 680 q 191 690 200 692 q 208 695 212 695 q 218 695 222 691 l 317 583 q 322 577 322 570 q 322 568 320 562 q 319 555 312 548 q 304 541 298 540 q 292 539 289 539 q 282 539 277 543 z"},"k":{"x_min":0,"x_max":483,"ha":483,"o":"m 513 291 q 505 271 494 242 q 484 212 470 180 q 457 147 440 115 q 424 83 405 58 q 386 33 364 17 q 343 1 319 1 q 289 1 268 18 q 248 35 234 63 q 221 91 212 126 q 202 162 193 199 q 182 161 173 127 q 164 93 156 69 q 147 40 134 20 q 120 1 95 1 q 94 1 93 1 q 62 1 42 20 q 22 40 10 68 q -1 95 -5 126 q -9 156 -9 180 q -8 241 4 323 q 16 405 34 495 q 52 585 74 676 q 96 766 117 845 q 127 845 148 843 q 169 841 189 836 q 209 831 222 824 q 235 816 235 807 q 235 805 234 803 q 212 717 192 630 q 173 544 155 456 q 133 352 118 260 q 103 167 102 108 q 102 97 102 88 q 102 65 104 52 q 106 39 111 39 q 116 39 129 77 q 135 99 143 132 q 151 164 161 200 q 171 237 183 275 q 195 313 210 347 q 225 381 243 408 q 261 436 283 451 q 291 457 309 457 q 310 457 321 456 q 332 456 352 451 q 372 446 386 438 q 399 429 399 420 q 399 419 398 417 q 394 400 388 374 q 383 349 378 318 q 370 318 362 318 q 338 318 320 324 q 303 329 294 342 q 285 354 285 372 q 285 390 291 412 q 270 391 252 356 q 234 322 220 281 q 229 248 244 208 q 258 168 274 134 q 291 99 309 76 q 327 52 344 52 q 357 52 372 66 q 386 80 400 102 q 414 125 428 152 q 441 180 452 206 q 463 233 471 256 q 479 278 483 291 z"},"u":{"x_min":0,"x_max":534,"ha":534,"o":"m 563 291 q 555 270 544 240 q 534 211 520 179 q 507 147 490 115 q 474 83 455 58 q 436 32 414 16 q 393 1 369 1 q 328 1 303 18 q 278 34 265 60 q 252 87 250 112 q 248 136 248 152 q 248 171 250 198 q 253 225 259 258 q 265 291 271 317 q 262 289 252 254 q 241 220 228 184 q 216 149 201 115 q 186 81 167 55 q 148 29 126 16 q 104 2 78 2 q 75 2 71 2 q 34 5 15 34 q -4 64 -8 99 q -13 134 -13 161 q -13 183 -10 222 q -6 260 2 310 q 11 360 20 400 q 29 440 33 459 q 43 459 64 457 q 85 455 106 450 q 126 445 139 438 q 152 430 152 421 q 152 419 151 417 q 149 408 143 378 q 137 348 130 308 q 122 268 116 224 q 109 180 106 146 q 103 112 103 91 q 103 85 104 70 q 104 54 112 52 q 113 52 114 52 q 125 52 140 74 q 156 97 172 136 q 189 174 206 221 q 223 268 238 312 q 253 355 265 390 q 277 424 284 438 q 289 448 308 448 q 309 448 320 448 q 331 447 354 441 q 377 435 392 426 q 408 416 408 407 q 408 406 408 404 q 403 383 396 348 q 389 312 382 272 q 376 231 371 190 q 366 148 366 130 q 365 111 365 108 q 365 79 370 58 q 374 38 387 38 q 400 38 415 53 q 430 68 445 92 q 460 116 474 146 q 488 175 500 203 q 512 231 521 254 q 530 278 534 291 z"},"]":{"x_min":0,"x_max":401,"ha":401,"o":"m 121 -49 l -65 -48 q -77 -48 -83 -41 q -89 -34 -90 -29 q -90 -24 -90 -22 q -90 -15 -86 -8 q -81 -2 -70 -2 l 98 -3 q 120 104 143 218 q 166 331 190 446 q 214 562 238 676 q 261 790 283 898 l 123 898 q 111 898 105 906 q 99 913 98 918 q 98 922 98 923 q 98 931 102 938 q 107 944 118 944 l 300 943 l 301 943 q 302 943 303 943 l 305 943 q 305 943 305 943 l 306 943 q 307 943 308 943 l 310 943 q 311 943 312 943 l 313 943 q 314 943 316 943 l 317 943 q 318 943 318 943 l 321 943 q 322 943 322 943 l 331 943 q 332 943 332 943 l 336 943 q 353 943 366 940 q 379 937 384 930 q 390 924 390 916 q 390 912 389 908 l 195 -33 q 193 -41 184 -44 q 175 -48 166 -49 q 156 -50 148 -50 q 144 -50 136 -50 q 128 -49 121 -49 z"},"U":{"x_min":0,"x_max":975,"ha":975,"o":"m 481 397 q 478 386 472 360 q 465 333 456 297 q 448 261 438 218 q 429 176 421 134 q 413 92 408 54 q 402 15 402 -14 q 402 -69 423 -69 q 443 -67 468 -30 q 488 0 509 46 q 530 93 552 150 q 573 206 594 270 q 616 333 637 397 q 660 468 683 536 q 706 603 728 658 q 751 714 774 753 q 796 792 819 806 q 830 812 842 812 q 843 812 845 812 q 860 811 878 808 q 895 805 910 800 q 925 796 934 790 q 942 785 942 778 q 942 777 942 775 q 941 771 940 768 q 939 765 938 760 q 925 713 910 654 q 896 596 881 533 q 866 470 852 406 q 837 342 826 284 q 815 226 808 178 q 802 129 801 97 q 801 92 801 88 q 801 65 806 49 q 810 33 822 33 q 835 33 850 49 q 866 65 882 90 q 897 115 912 145 q 927 175 940 204 q 952 232 962 256 q 971 279 975 291 l 1005 291 q 997 272 986 244 q 975 215 960 182 q 946 150 928 118 q 911 85 891 59 q 871 33 849 16 q 827 0 804 0 q 768 0 744 13 q 720 26 706 48 q 693 71 688 98 q 684 125 684 151 q 684 157 684 162 q 685 213 697 286 q 709 358 727 439 q 745 520 767 602 q 789 685 809 757 q 794 737 777 701 q 760 665 742 616 q 724 568 704 510 q 685 453 664 390 q 643 327 622 264 q 601 202 580 145 q 558 88 536 40 q 513 -7 491 -40 q 474 -64 452 -82 q 430 -99 402 -99 q 399 -99 396 -99 q 360 -97 338 -81 q 316 -65 304 -41 q 292 -17 288 11 q 284 39 284 66 q 284 114 292 166 q 301 218 313 266 q 325 314 336 353 q 348 392 354 413 q 357 425 367 456 q 377 486 390 527 q 402 568 416 616 q 429 665 440 714 q 451 763 458 807 q 465 851 465 885 q 465 887 464 906 q 464 925 454 946 q 444 967 422 967 q 370 967 322 936 q 275 906 234 858 q 193 809 159 748 q 125 688 100 628 q 74 567 59 513 q 44 459 41 423 q 39 412 34 412 q 34 412 31 412 q 28 413 21 424 q 0 459 0 508 q 0 514 2 546 q 3 577 27 640 q 51 704 92 767 q 133 830 184 880 q 235 931 293 962 q 351 992 408 992 q 410 992 412 992 q 456 992 486 977 q 515 962 532 936 q 550 909 557 876 q 564 842 564 807 q 564 802 564 797 q 563 745 552 688 q 542 630 528 576 q 515 521 502 474 q 488 427 481 397 z"},"o":{"x_min":0,"x_max":476,"ha":476,"o":"m 505 291 q 487 247 456 203 q 426 159 387 122 q 348 84 302 56 q 257 29 208 17 q 174 1 133 1 q 130 1 128 1 q 88 1 60 16 q 33 30 16 54 q -2 79 -10 112 q -17 145 -17 181 q -17 228 -4 276 q 9 325 35 364 q 61 404 100 428 q 140 453 193 453 q 233 453 261 438 q 289 422 306 396 q 324 370 332 336 q 339 302 339 265 q 339 214 324 164 q 309 114 279 75 q 312 93 342 118 q 371 142 396 170 q 422 199 442 230 q 462 261 476 291 z m 206 415 q 205 415 205 415 q 187 415 172 388 q 157 360 145 318 q 133 276 126 227 q 119 178 118 156 q 118 133 118 130 q 118 92 124 65 q 131 38 147 38 q 156 38 166 46 q 151 62 151 82 q 151 86 152 91 q 156 111 172 122 q 188 134 206 134 q 209 134 212 134 q 225 176 232 224 q 239 273 239 315 q 239 357 232 386 q 224 414 206 415 z"},"N":{"x_min":0,"x_max":975,"ha":975,"o":"m 1005 291 q 998 273 986 244 q 975 215 960 182 q 946 150 928 118 q 911 85 891 59 q 871 33 849 16 q 827 0 804 0 q 768 0 744 13 q 720 26 706 48 q 693 71 688 98 q 684 125 684 151 q 684 157 684 162 q 685 215 698 294 q 712 373 732 460 q 752 548 776 636 q 799 724 820 795 q 786 795 752 766 q 717 736 684 686 q 650 637 618 572 q 586 508 558 438 q 530 368 506 296 q 481 225 462 162 q 443 100 430 51 q 417 2 411 -25 q 407 -43 394 -53 q 381 -63 371 -64 q 361 -65 358 -65 q 345 -65 330 -59 q 316 -53 305 -37 q 289 -14 286 14 q 283 41 283 63 q 283 80 285 110 q 287 139 296 184 q 304 229 315 272 q 326 314 336 351 q 347 388 354 413 q 357 425 367 456 q 377 486 390 527 q 402 568 416 616 q 429 665 440 714 q 451 763 458 807 q 465 851 465 885 q 465 887 464 906 q 464 925 454 946 q 445 967 422 967 q 370 967 322 936 q 275 906 234 858 q 193 809 159 748 q 125 688 100 628 q 74 567 59 513 q 44 459 41 423 q 39 412 34 412 q 34 412 31 412 q 28 413 21 424 q 0 459 0 508 q 0 514 2 546 q 3 577 27 640 q 51 704 92 767 q 133 830 184 880 q 235 931 293 962 q 351 992 408 992 q 410 992 412 992 q 456 992 486 977 q 515 962 532 936 q 550 909 557 876 q 564 842 564 807 q 564 802 564 797 q 563 745 552 688 q 542 630 528 576 q 515 521 502 474 q 488 427 481 397 q 478 385 471 356 q 464 327 454 288 q 445 249 435 204 q 425 158 417 114 q 434 173 456 243 q 479 313 506 384 q 533 456 564 526 q 596 595 630 652 q 664 710 701 752 q 738 793 776 810 q 797 819 815 820 q 833 821 839 821 q 862 821 886 816 q 910 810 924 798 q 939 785 939 770 q 939 765 938 760 q 925 713 910 654 q 896 596 881 533 q 866 470 852 406 q 837 342 826 284 q 815 226 808 178 q 801 129 801 97 q 801 92 801 88 q 801 65 806 49 q 810 33 822 33 q 835 33 850 49 q 866 65 882 90 q 897 114 912 144 q 927 175 940 204 q 952 232 962 256 q 971 279 975 291 z"},"+":{"x_min":0,"x_max":468,"ha":468,"o":"m 124 418 l 212 417 l 213 505 q 213 517 224 523 q 234 529 247 529 q 260 529 270 523 q 280 517 280 505 l 280 417 l 367 416 q 379 416 385 406 q 391 395 391 382 q 391 369 386 359 q 380 349 370 349 l 279 349 l 278 261 q 278 249 268 244 q 257 238 244 238 q 231 238 221 243 q 211 248 211 259 l 211 350 l 124 351 q 112 351 106 362 q 100 372 100 385 q 100 398 106 408 q 112 418 124 418 z"},"G":{"x_min":0,"x_max":700,"ha":700,"o":"m 605 797 q 607 799 618 799 q 621 799 631 798 q 641 798 661 796 q 651 838 622 854 q 594 869 548 869 q 546 869 544 869 q 493 869 450 842 q 407 815 372 770 q 338 725 314 667 q 289 609 274 548 q 260 487 257 446 q 254 406 254 385 q 254 352 260 316 q 265 279 283 250 q 301 222 330 221 q 366 221 407 271 q 448 321 477 420 q 483 474 492 527 q 497 528 505 528 q 513 528 530 527 q 546 526 567 522 q 588 518 603 512 q 618 505 618 495 q 618 495 618 494 q 608 412 601 338 q 594 263 584 191 q 574 119 558 48 q 542 -22 514 -95 q 499 -135 479 -166 q 459 -198 432 -218 q 406 -237 384 -241 q 361 -245 349 -245 q 325 -245 297 -237 q 241 -220 191 -180 q 141 -141 102 -90 q 63 -38 37 21 q 11 80 6 120 q 0 159 0 179 q 0 212 10 250 q 20 288 57 318 q 67 326 73 326 q 74 326 76 326 q 78 325 78 321 q 78 318 76 313 q 65 280 65 234 q 65 232 66 206 q 66 181 76 128 q 86 74 107 19 q 128 -36 158 -83 q 188 -130 228 -165 q 267 -200 316 -215 q 322 -217 328 -217 q 338 -217 350 -209 q 362 -201 374 -179 q 387 -157 397 -126 q 407 -95 415 -58 q 437 42 447 132 q 457 222 466 314 q 428 237 383 202 q 338 168 295 168 q 293 168 292 168 q 239 168 205 200 q 171 232 154 284 q 137 336 137 402 q 137 468 153 537 q 169 606 201 672 q 233 739 279 790 q 325 842 386 874 q 446 905 520 905 q 553 905 586 897 q 618 889 645 874 q 672 859 691 838 q 710 816 716 789 q 717 783 717 777 q 717 759 708 728 q 699 698 693 647 q 642 650 619 660 q 596 671 592 684 q 588 698 588 708 q 588 720 593 741 q 598 762 605 797 z"},"q":{"x_min":0,"x_max":476,"ha":476,"o":"m 458 -177 q 486 -195 489 -211 q 492 -227 492 -236 q 492 -251 487 -268 q 481 -290 469 -314 q 457 -338 440 -358 q 424 -379 402 -392 q 381 -405 355 -405 q 322 -405 290 -384 q 257 -364 238 -337 q 215 -305 206 -262 q 197 -218 196 -167 q 196 -98 208 -22 q 220 54 237 129 q 216 78 188 43 q 159 8 124 6 q 119 6 115 6 q 66 6 34 36 q 3 66 -8 106 q -18 147 -18 182 q -18 201 -14 240 q -9 279 16 328 q 40 378 82 411 q 123 444 180 444 q 213 443 238 426 q 262 408 274 380 q 276 388 279 396 q 282 403 286 412 q 294 431 308 440 q 323 449 334 450 q 346 452 352 452 q 364 452 379 448 q 394 445 409 437 q 395 400 383 347 q 371 294 360 234 q 349 173 340 108 q 331 43 324 -18 q 318 -80 314 -134 q 311 -188 311 -227 q 311 -232 311 -238 q 311 -295 322 -336 q 332 -378 361 -379 q 362 -379 364 -379 q 379 -379 393 -369 q 407 -359 418 -342 q 430 -326 438 -307 q 446 -288 451 -272 q 454 -260 454 -249 q 454 -243 452 -232 q 451 -221 431 -207 q 430 -205 430 -202 q 430 -199 432 -194 q 433 -189 437 -184 q 441 -180 446 -178 q 450 -176 453 -176 q 456 -176 458 -177 z m 135 42 q 152 43 167 61 q 182 79 195 106 q 208 133 219 166 q 230 200 238 232 q 246 265 250 294 q 255 323 256 341 q 254 355 248 368 q 242 380 234 390 q 227 399 219 404 q 211 410 205 410 q 186 410 169 383 q 152 356 139 314 q 126 273 118 224 q 110 176 110 152 q 109 129 109 124 q 109 90 114 66 q 120 42 133 42 q 134 42 135 42 z"},"d":{"x_min":0,"x_max":536,"ha":536,"o":"m 565 291 q 557 271 546 241 q 535 211 520 179 q 506 147 488 115 q 471 83 452 58 q 432 32 410 16 q 388 0 364 0 q 332 0 310 12 q 288 23 274 43 q 260 63 253 90 q 246 117 245 147 q 234 118 221 93 q 208 68 192 50 q 177 31 160 20 q 143 9 125 8 q 121 8 117 8 q 81 8 54 24 q 26 41 9 72 q -8 102 -12 133 q -17 164 -17 186 q -17 205 -14 235 q -10 265 5 305 q 20 345 45 376 q 70 407 104 426 q 138 445 181 445 q 210 445 232 432 q 255 418 268 395 q 278 450 290 508 q 302 567 316 625 q 329 683 343 739 q 357 795 370 845 q 380 845 401 843 q 422 841 442 836 q 462 831 475 824 q 488 816 488 807 q 488 805 487 803 l 483 787 q 464 708 443 612 q 422 517 404 422 q 386 328 374 245 q 362 162 361 108 q 361 75 366 56 q 371 37 382 37 q 395 37 410 52 q 426 68 442 92 q 457 115 472 144 q 488 174 500 202 q 513 231 522 254 q 532 278 536 291 z m 136 44 q 153 45 168 63 q 183 81 196 108 q 209 135 220 168 q 230 202 238 234 q 246 267 251 296 q 256 325 257 343 q 255 357 249 370 q 243 382 236 392 q 228 401 220 406 q 212 412 206 412 q 187 412 170 385 q 153 358 140 316 q 127 275 119 226 q 111 178 110 154 q 110 131 110 126 q 110 92 116 68 q 121 44 134 44 q 135 44 136 44 z"},"1":{"x_min":0,"x_max":313,"ha":313,"o":"m 188 823 q 198 841 212 844 q 227 846 234 846 q 248 846 265 841 q 282 836 296 823 q 309 810 309 796 q 309 793 308 790 q 273 597 249 406 q 225 215 190 23 q 188 11 169 6 q 150 1 133 1 q 127 1 112 2 q 97 3 80 14 q 63 24 63 43 q 63 46 63 49 q 90 224 113 394 q 136 563 169 737 q 147 708 114 680 q 82 652 34 636 q 32 635 31 635 q 28 635 25 638 q 22 641 21 646 q 20 650 20 653 q 20 655 20 658 q 21 661 26 663 q 62 675 88 696 q 115 716 134 739 q 153 762 166 784 q 178 806 186 821 z"},"5":{"x_min":0,"x_max":528,"ha":528,"o":"m 184 0 q 137 0 100 18 q 64 37 44 68 q 23 98 22 120 q 20 143 20 148 q 20 182 37 219 q 51 232 64 235 q 76 238 85 238 q 92 238 103 236 q 114 233 126 224 q 137 216 142 205 q 132 183 126 156 q 120 130 120 109 q 120 104 121 89 q 122 74 136 56 q 149 39 180 39 q 213 39 244 66 q 276 93 300 136 q 324 178 338 229 q 351 280 351 329 q 351 333 351 336 q 350 375 338 409 q 327 443 303 468 q 279 494 241 508 q 203 523 149 524 q 135 524 126 524 q 117 523 112 523 q 107 523 101 524 q 95 524 91 527 q 87 530 87 537 q 87 538 87 540 q 91 598 100 664 q 109 731 112 788 q 113 807 116 824 q 120 842 133 845 q 136 845 139 845 l 142 845 q 144 845 146 845 l 149 845 q 151 845 152 845 l 159 845 q 161 845 162 845 l 165 845 q 166 845 168 845 l 170 845 q 172 845 173 845 l 176 845 q 177 845 179 845 l 224 845 q 226 845 228 845 l 231 845 q 233 845 235 845 l 237 845 q 238 845 240 845 l 246 845 q 247 845 249 845 l 251 845 q 253 845 254 845 l 256 845 q 258 845 259 845 l 261 845 q 263 845 264 845 l 307 845 q 309 845 310 845 l 313 845 q 315 845 317 845 l 319 845 q 320 845 322 845 l 328 845 q 329 845 331 845 l 333 845 q 334 845 336 845 l 338 845 q 339 845 341 845 l 343 845 q 344 845 346 845 l 389 845 q 391 845 393 845 l 395 845 q 397 845 399 845 l 402 845 q 403 845 404 845 l 411 845 q 412 845 414 845 l 416 845 q 418 845 419 845 l 422 845 q 423 845 425 845 l 427 845 q 429 845 430 845 l 478 845 q 488 845 492 832 q 497 819 497 806 q 497 803 496 794 q 496 784 490 770 q 483 757 470 757 l 138 757 q 133 711 126 660 q 120 610 116 564 q 153 570 188 570 q 263 570 318 548 q 372 526 408 489 q 444 452 462 403 q 479 354 479 301 q 479 245 460 191 q 440 137 402 94 q 365 52 310 26 q 256 0 184 0 z"}}}
